/* XPM */
static char *result[] = {
/* columns rows colors chars-per-pixel */
"32 32 42 1 ",
"  c white",
". c #FEFFFF",
"X c #F7FBFA",
"o c #FEFEFE",
"O c #E7F3F1",
"+ c #E8F3F2",
"@ c #F3F9F8",
"# c #EEF6F5",
"$ c #E6F3F1",
"% c #F6FBFA",
"& c #F5FAFA",
"* c #FBFDFD",
"= c #EDF6F5",
"- c #E8F4F2",
"; c #EAF5F3",
": c #EAF5F4",
"> c #E5F2F1",
", c #F9FCFC",
"< c #EFF7F6",
"1 c #FCFEFE",
"2 c #E4F2F0",
"3 c #E1F0EE",
"4 c #DCEEEB",
"5 c #F1F8F7",
"6 c #FDFEFE",
"7 c #EEF7F6",
"8 c #E7F3F2",
"9 c #F4F9F9",
"0 c #FAFCFC",
"q c #FBFDFC",
"w c #E6F2F1",
"e c #E3F1F0",
"r c #E5F2F0",
"t c #F7FBFB",
"y c #F9FCFB",
"u c #FCFEFD",
"i c #F8FCFB",
"p c #ECF6F4",
"a c #FAFDFC",
"s c #EBF5F4",
"d c #E3F1EF",
"f c #F2F9F8",
/* pixels */
"                                ",
"                                ",
"                                ",
"                                ",
"                                ",
"                  .Xo           ",
"                   O+@#$%&*     ",
"                   *=-;:>+,     ",
"    <,o1                        ",
"    =2345%                      ",
"    6<7<89                      ",
"                                ",
"                                ",
"                                ",
"                                ",
"                                ",
"                                ",
"                      0*        ",
"                      <-oX<q.   ",
"                      *we32rt   ",
"                       oy* *6   ",
"                                ",
"                                ",
"            u                   ",
"        ipa@4-<s6               ",
"        u83d57Of                ",
"          *6                    ",
"                                ",
"                                ",
"                                ",
"                                ",
"                                "
};
