/* XPM */
static char *f5e345d3001e4353d066bf9819a4a270lEcBWyZ5917Mth8m[] = {
/* columns rows colors chars-per-pixel */
"32 32 105 2 ",
"   c None",
".  c #321126",
"X  c #331326",
"o  c #361225",
"O  c #371225",
"+  c #361325",
"@  c #3A1726",
"#  c #3C1826",
"$  c #3D1926",
"%  c #421B26",
"&  c #4D1A25",
"*  c #521D26",
"=  c #541E26",
"-  c #4F2729",
";  c #582227",
":  c #552528",
">  c #512B2B",
",  c #5E2A28",
"<  c #602024",
"1  c #6A2726",
"2  c #6C2626",
"3  c #6F2F28",
"4  c #712725",
"5  c #722B26",
"6  c #712D27",
"7  c #742E27",
"8  c #6C3029",
"9  c #6C352B",
"0  c #6D3B2E",
"q  c #763629",
"w  c #793228",
"e  c #75392B",
"r  c #713B2D",
"t  c #713B2E",
"y  c #803328",
"u  c #823429",
"i  c #8A3728",
"p  c #8D3E2A",
"a  c #8C412B",
"s  c #98462B",
"d  c #8A4C32",
"f  c #8C4F34",
"g  c #9E5231",
"h  c #975D3A",
"j  c #A84627",
"k  c #A4452A",
"l  c #A84629",
"z  c #AF4A2A",
"x  c #AE4B2A",
"c  c #AF4B2A",
"v  c #AB4C2B",
"b  c #AD4D2B",
"n  c #AE4D2C",
"m  c #B14926",
"M  c #A0502F",
"N  c #B7522B",
"B  c #B0552D",
"V  c #B2552C",
"C  c #B7562D",
"Z  c #B85229",
"A  c #B9532B",
"S  c #BD542A",
"D  c #BD572B",
"F  c #BD562D",
"G  c #BE5B2D",
"H  c #BF5B2F",
"J  c #A55833",
"K  c #AB5D34",
"L  c #BC5C30",
"P  c #BD5F30",
"I  c #BE5F31",
"U  c #98603D",
"Y  c #B76536",
"T  c #BF6333",
"R  c #BF6635",
"E  c #C45A2C",
"W  c #C55B2E",
"Q  c #C75C2E",
"!  c #C85E2D",
"~  c #C85F2F",
"^  c #CA5F2F",
"/  c #C15E30",
"(  c #CC602F",
")  c #C66431",
"_  c #C86632",
"`  c #CE6530",
"'  c #C26935",
"]  c #C76D37",
"[  c #CF6832",
"{  c #CB6935",
"}  c #C16D39",
"|  c #C56E38",
" . c #C86D38",
".. c #D26732",
"X. c #D06B33",
"o. c #CE753A",
"O. c #D57036",
"+. c #D47438",
"@. c #D77539",
"#. c #D47639",
"$. c #D77D3D",
"%. c #9B6740",
"&. c #CC7E42",
"*. c #DF813E",
"=. c #DF8440",
/* pixels */
"                                                                ",
"                                                                ",
"                                                                ",
"                                                                ",
"                                                                ",
"                                                                ",
"                                                                ",
"                                                                ",
"                                                                ",
"                                                                ",
"                  9 K &.Y J 0                                   ",
"                < / X.+.B $.L 8                                 ",
"                2 Q D _  .j E 6                                 ",
"                  y F ..^ A a                                   ",
"                    * 5 7 , $         > f %.d >                 ",
"                                    3 ' *.] L } e               ",
"                                    l ^ G L | E v               ",
"                t U h t             u Q X.+.A D p               ",
"              M +.=.B o.g             1 k c v q @               ",
"            4 ( A ) R ) / w             . + X   %               ",
"            = n ` O.{ m C ;                                     ",
"              & i c c s :                                       ",
"                  + +   #                                       ",
"                                                                ",
"                                                                ",
"                                                                ",
"                                                                ",
"                                                                ",
"                                                                ",
"                                                                ",
"                                                                ",
"                                                                "
};
