/* XPM */
static char *result[] = {
/* columns rows colors chars-per-pixel */
"64 64 249 2 ",
"   c #030602",
".  c #03140B",
"X  c #061A16",
"o  c #2B0000",
"O  c #03251C",
"+  c #0F3212",
"@  c #34241B",
"#  c #092924",
"$  c #172624",
"%  c #16342C",
"&  c #173934",
"*  c #07342C",
"=  c #283A35",
"-  c #233D2B",
";  c #71130E",
":  c #502616",
">  c #65261E",
",  c #50362B",
"<  c #74362F",
"1  c #5E1C0E",
"2  c #1B4F12",
"3  c #23570D",
"4  c #254818",
"5  c #285916",
"6  c #327A0D",
"7  c #2C6316",
"8  c #336A1B",
"9  c #3A751B",
"0  c #397918",
"q  c #2B6C0E",
"w  c #0D563A",
"e  c #114E33",
"r  c #2E512C",
"t  c #3D7424",
"y  c #356A36",
"u  c #397634",
"i  c #356F27",
"p  c #1B6319",
"a  c #427A1D",
"s  c #447B23",
"d  c #457929",
"f  c #487733",
"g  c #497437",
"h  c #59433E",
"j  c #174D44",
"k  c #17584A",
"l  c #19594F",
"z  c #284D46",
"x  c #2A554C",
"c  c #245A49",
"v  c #295B54",
"b  c #355A54",
"n  c #385A55",
"m  c #385148",
"M  c #09664C",
"N  c #186B56",
"B  c #147351",
"V  c #2A665A",
"C  c #36655B",
"Z  c #306F52",
"A  c #2C6B63",
"S  c #356863",
"D  c #267766",
"F  c #3A736B",
"G  c #35766A",
"H  c #377B72",
"J  c #2C7E73",
"K  c #53514A",
"L  c #744F49",
"P  c #476C50",
"I  c #476B66",
"U  c #45726B",
"Y  c #457B74",
"T  c #556D67",
"R  c #6E7872",
"E  c #920B0B",
"W  c #AD1616",
"Q  c #952E2D",
"!  c #AF3631",
"~  c #B0221F",
"^  c #CE3B3B",
"/  c #9F4539",
"(  c #95534F",
")  c #AA5150",
"_  c #92766D",
"`  c #A57775",
"'  c #9A6959",
"]  c #D2504F",
"[  c #D46767",
"{  c #3B8317",
"}  c #2E843D",
"|  c #42881B",
" . c #4A981E",
".. c #468126",
"X. c #4E9423",
"o. c #4C8E36",
"O. c #58A92A",
"+. c #5DA836",
"@. c #67B73A",
"#. c #61AD34",
"$. c #6DCB34",
"%. c #6BC73A",
"&. c #73CB3D",
"*. c #71CB38",
"=. c #73D23A",
"-. c #0A825D",
";. c #349046",
":. c #1D8B6D",
">. c #10986C",
",. c #298B73",
"<. c #398577",
"1. c #2D9171",
"2. c #1FA368",
"3. c #4D934F",
"4. c #59AF55",
"5. c #71B54E",
"6. c #458579",
"7. c #518C71",
"8. c #69867A",
"9. c #788C78",
"0. c #73B476",
"q. c #41A278",
"w. c #5BCB5B",
"e. c #78CD48",
"r. c #7BD148",
"t. c #77CE50",
"y. c #74D36A",
"u. c #58C766",
"i. c #98867E",
"p. c #80BB5B",
"a. c #E4807E",
"s. c #88D859",
"d. c #8CD46B",
"f. c #94DC6C",
"g. c #98D96C",
"h. c #9ADC73",
"j. c #97DC75",
"k. c #8EC771",
"l. c #A2DE7B",
"z. c #96E073",
"x. c #96E067",
"c. c #A4E17B",
"v. c #A67F83",
"b. c #3C8C85",
"n. c #3C9787",
"m. c #3E9E94",
"M. c #18B484",
"N. c #2DAA8B",
"B. c #2BA688",
"V. c #37A68C",
"C. c #3CA594",
"Z. c #34AA92",
"A. c #3BA995",
"S. c #3DA69A",
"D. c #3CAB9C",
"F. c #35A795",
"G. c #38B798",
"H. c #2CB48E",
"J. c #3DAFA2",
"K. c #448C83",
"L. c #498D86",
"P. c #469589",
"I. c #589789",
"U. c #499C96",
"Y. c #549D95",
"T. c #578982",
"R. c #68958B",
"E. c #76928B",
"W. c #6D8F8B",
"Q. c #43A395",
"!. c #43A49A",
"~. c #4BA49B",
"^. c #43A99C",
"/. c #4CAB9D",
"(. c #47A695",
"). c #53A39A",
"_. c #56A799",
"`. c #44B699",
"'. c #50A88D",
"]. c #6AA69A",
"[. c #6DAA94",
"{. c #4AABA2",
"}. c #54ABA4",
"|. c #54B4A3",
" X c #4EB4A3",
".X c #69B8A9",
"XX c #75B4A2",
"oX c #18D79C",
"OX c #10CA8E",
"+X c #29C89A",
"@X c #36C69C",
"#X c #27D49D",
"$X c #3ACAA2",
"%X c #33D9A6",
"&X c #1BEAA9",
"*X c #17F5AC",
"=X c #18F9B0",
"-X c #26E8AC",
";X c #2DEEB2",
":X c #4BC49D",
">X c #46C8A6",
",X c #54C7A8",
"<X c #47D3AC",
"1X c #47DBB2",
"2X c #54D7B3",
"3X c #5BD7AC",
"4X c #68D9B6",
"5X c #71C7B0",
"6X c #49E7B6",
"7X c #54E7B9",
"8X c #4CFCBC",
"9X c #4DF4B9",
"0X c #52FBBE",
"qX c #53F2BC",
"wX c #47E4AD",
"eX c #68E9BC",
"rX c #6DCB93",
"tX c #58EDC2",
"yX c #4CFDC2",
"uX c #4EFAC7",
"iX c #53FCC3",
"pX c #5BFBC4",
"aX c #54FCC9",
"sX c #5AF7C7",
"dX c #67EAC4",
"fX c #66F7C8",
"gX c #70FDD3",
"hX c #859790",
"jX c #88A886",
"kX c #8FAE91",
"lX c #91B1AA",
"zX c #A9B1A5",
"xX c #AF9491",
"cX c #DB9E9D",
"vX c #9BDC86",
"bX c #A6D789",
"nX c #A6E786",
"mX c #89CAB8",
"MX c #8EEBA8",
"NX c #AFD9CE",
"BX c #9BF2D8",
"VX c #F4D6D7",
"CX c #D0EFE8",
"ZX c #E9F8F7",
"AX c #FCFEFE",
"SX c #FBFBF9",
"DX c #F0E8E6",
"FX c #CCD8D2",
"GX c None",
/* pixels */
"GXGXGXGXGXGXGXGXGXGXGXGXGXGXGXGXGXGXGXGXGXGXGXGXGXGXGXGXGXGXGXGXGXGXGXGXGXGXGXGXGXGXGXGXGXGXGXGXGXGXGXGXGXGXGXGXGXGXGXGXGXGXGXGX",
"GXGXGXGXGXGXGXGXGXGXGXGXGXGXGXGXGXGXGXGXGXGXGXGXGXGXGXGXGXGXGXGXGXGXGXGXGXGXGXGXGXGXGXGXGXGXGXGXGXGXGXGXGXGXGXGXGXGXGXGXGXGXGXGX",
"GXGXGXGXGXGXGXGXGXGXGXGXGXGXGXGXGXGXGXGXGXGXGXGXGXGXGXGXGXGXGXGXGXGXGXGXGXGXGXGXGXGXGXGXGXGXGXGXGXGXGXGXGXGXGXGXGXGXGXGXGXGXGXGX",
"GXGXGXGXGXGXGXGXGXGXGXGXGXGXGXGXGXGXGXGXGXGXGXGXGXGXGXGXGXGXGXGXGXGXGXGXGXGXGXGXGXGXGXGXGXGXGXGXGXGXGXGXGXGXGXGXGXGXGXGXGXGXGXGX",
"GXGXGXGXGXGXGXGXGXGXGXGXGXGXGXGXGXGXGXGXGXGXGXGXGXGXGXGXGXGXGXGXGXGXGXGXGXGXGXGXGXGXGXGXGXGXGXGXGXGXGXGXGXGXGXGXGXGXGXGXGXGXGXGX",
"GXGXGXGXGXGXGXGXGXGXGXGXGXGXGXGXGXGXGXGXGXGXGXGXGXGXGXGXGXGXGXGXGXGXGXGXGXGXGXGXGXGXGXGXGXGXGXGXGXGXGXGXGXGXGXGXGXGXGXGXGXGXGXGX",
"GXGXGXGXGXGXGXGXGXGXGXGXGXGXGXGXGXGXGXGXGXGXGXGXGXGXGXGXGXGXGXGXGXGXGXGXGXGXGXGXGXGXGXGXGXGXGXGXGXGXGXGXGXGXGXGXGXGXGXGXGXGXGXGX",
"GXGXGXGXGXGXGXGXGXGXGXGXGXGXGXGXGXGXGXGXGXGXGXGXGXGXGXGXGXGXGXGXGXGXGXGXGXGXGXGXGXGXGXGXGXGXGXGXGXGXGXGXGXGXGXGXGXGXGXGXGXGXGXGX",
"GXGXGXGXGXGXGXGXGXGXGXGXGXGXGXGXGXGXGXGXGXGXGXGXGXGXGXGXGXGXGXGXGXGXGXGXGXGXGXGXGXGXGXGXGXGXGXGXGXGXGXGXGXGXGXGXGXGXGXGXGXGXGXGX",
"GXGXGXGXGXGXGXGXGXGXGXGXGXGXGXGXGXGXGXGXGXGXGXGXGXGXGXGXGXGXGXGXGXGXGXGXGXGXGXGXGXGXGXGXGXGXGXGXr 4 GXGXGXGXGXGXGXGXGXGXGXGXGXGX",
"GXGXGXGXGXGXGXGXGXGXGXGXGXGXGXGXGXGXGXGXGXGXGXGXGXGXGXGXGXGXGXGXGXGXGXGXGXGXGXGXGXGXGXGXGX+ 4 3 e.P GXGXGXGXGXGXGXGXGXGXGXGXGXGX",
"GXGXGXGXGXGXGXGXGXGXGXGXGXGXGXGXGXGXGXGXGXGXGXGXGXGXGXGXGXGXGXGX;.u ;.} ;.3.y GXGXGXGXGX2 3...q O...GX4 GXGXGXGXGXGXGXGXGXGXGXGX",
"GXGXGXGXGXGXGXGXGXGXGXGXGXGXGXGXGXGXGXGXGXGXGXGXGXGXGXGXGXGXGXGX4.w.w.w.w.u.o.7 t i 7 7 { s.#.6 | q 5 f d GXGXGXGXGXGXGXGXGXGXGX",
"GXGXGXGXGXGXGXGXGXGXGXGXGXGXGXGXGXGXGXGXGXGXGXGXGXGXGXGXGX;.u.4.y.j.z.z.j.y.g.h.j.d.5.@.*.&. .{ &.+.4 t t GXGXGXGXGXGXGXGXGXGXGX",
"GXGXGXGXGXGXGXGXGXGXGXGXGXGXGXGXGXGXGXGXGXGXGXGXGXGXGXGX3.y.y.y.j.vXf.z.vXbXnXl.l.g.f.+.|  .O.O.*.#.7 7 5 GXGXGXGXGXGXGXGXGXGXGX",
"GXGXGXGXGXGXGXGXGXGXGXGXGXGXGXGXGXGXGXGXGXGXGXGXGXGXGX3.y.z.z.h.g.j.d.d.y.0.k.k.k.s.s.+.| { O.s.=.O.| r 4 GXGXGXGXGXGXGXGXGXGXGX",
"GXGXGXGXGXGXGXGXGXGXx x j GXGXGXGXGXGXGXGXGXGXGXGXGX'.rXvXnXz.vXnXnXvXo.+ + 3 d a 6 6 p.h.@.e.$.=.O.6 7 4 GXGXGXGXGXGXGXGXGXGXGX",
"GXGXGXGXGXGXGXGXz <.`.>XC.e GXGXGXGXGX& & & & GX2 w 3.3.3.;.<.7.u g u 1.A.n.r + 5.0.5.d.h.s.e.%.$.$.#.8 3 r GXGXGXGXGXGXGXGXGXGX",
"GXGXGXGXGXGXGXGXH 2XsXaX7X2.G V GXGX<.,.,.1.,.,.,.F J D D D c w k k w ,XgXgXZ + k.l.z.h.f.z.e.$.$.*.s.6 3 o.r GXGXGXGXGXGXGXGXGX",
"GXGXGXGXGXGXGXGXG >XiXiXsXfXV.M w ,.dXqXtXdXsXfXdXdX.X5X5XmX,.e 2XqXdXtXiXgX,.X p.l.f.h.g.z.s.$.$.$.*.6 3 d f r GXGXGXGXGXGXGXGX",
"GXGXGXGXGXGXGXGXH ,XuX<X$XfX2X$X@X<X0XiXpX<X$X$X>X1XdX4X5XmX.X`.qX0XiX8X8XfXD X k.nXg.g.j.g.t.e.*.$.&.| 6 5 8 t GXGXGXGXGXGXGXGX",
"GXGXGXGXGXGXGXGXG ,X3X@X#XqXaXaXsX0XiXuX1XN.V.D.F.G.fX7X4X.XdXsX0X8X8X0X8XfX:.+ 9.k.bXh.j.j.r.=.$.*.&.X.8 3 8 s GXGXGXGXGXGXGXGX",
"GXGXGXGXGXGXGXGX<.n.M @XsX8XuXuXsXpXaX>XN.C.C.D.N.`.sXsXdX5X7XaX0X0X0X8X9XpX>X7.. r c.h.j.z.r.%.$.$.*.X.a 3 8 s g r GXGXGXGXGXGX",
"GXGXGXGXGXGXGXGX<.|.`.6X0X0XyXyXiX6X$X`.C.S.F.N.<X7XqXuXdX2X7XiX8XiX0X8X8XiX<XQ.O r bXc.z.t.t.=.*.*.=.X.9 8 8 7 f 5 GXGXGXGXGXGX",
"GXGXGXGXGXGXGXGXG ,XfXuX8X8X8XyX8X6XZ.S.C.F.`.G.iXyXyXiXtX7X2X6X7X6X0XyXyXsX<Xn.O r bXg.s.%.%.$.*.%.@.X.a ..5 3 d 8 GXGXGXGXGXGX",
"GXGXGXGXGXGXGXGX<.>XuX8X8X8X8X8XiXwXZ.F.C.B.<XtX8XyXyX0XtXfX,XV.V.>XpX0XuXsX<XP.X r bXs.$.$.*.$.&.#.6 0 a f 8 5 d s f GXGXGXGXGX",
"GXGXGXGXGXGXGXT V q.iX8XyX8X8X9XyX9X1X6X6X6X7XsXyXyXyXiXsX,X[.XX[.Y.1.2XpX>X XQ.J Z 5 +.e.=.e.e.O.{ 0 9 s d i 2 s a f GXGXGXGXGX",
"GXGXGXGXGXGXGXhXK 7.4X7X8X8X8X8X8XiXaX7X6X2XtXaXyXyX0X7XkX_ _ ` zXhXP I.,XA.S.S.|.F   P 5.@.@.@.| 6 0 a a s 7 p 8 a f GXGXGXGXGX",
"GXGXGXGXGXGXGXK < L I.2XiX0XyXyX0XqXaX$XN.B.<XaXaX8XqX|.' ! W ; VXCXhXI C Y.{.S.}.A   & u t 0 0 9 { ..a a d 7 3 8 s f GXGXGXGXGX",
"GXGXGXGXGXGXGX< ! L 7.2XpXqXyXyX8X6X$XG.F.N.<XaXiXyXqX5X' ~ E E VXSXDXR l U.{.S.).I   = y t ..0 0 { a a 9 5 8 9 a a f GXGXGXGXGX",
"GXGXGXGXGXGX= ) Q _ W.,XqX0XiXyXyXwXN.F.F.G.1XiXyX8X4X9.' ] ~ W cXDXAXlXY ).m.S.{.G . z P g u t 9 9 a s s 2 8 | a s f GXGXGXGXGX",
"GXGXGXGXGXb W.xX! ) xXY.G.9XyXyXiXwXZ.N.G.sXaXyX0X6X7.( ' DX[ E E ) AXAXCX~.m.S.S.,.e 6.I.b y d ..9 a s d 3 8 a 0 s g GXGXGXGXGX",
"GXGXGXGXGXz [.VX) ! zXR.D.aXyX8X0X9X1X7X6XiXiX8XyX6XI.Q ' DXa.^ ^ [ SXAXCX|.C.S.D.F.,.n.~.K.F i t a a 8 7 8 i s a 8 GXGXGXGXGXGX",
"GXGXGXGXGXz lXDX< < _ _.D.uXiX8X8X0XiX8XyX8X8X8XyX6XI.K / cXa.[ ] cXAXZXNX/.F.S.D.J.!.{.!.~.<.Z Z t i 8 q ..d 8 d 4 GXGXGXGXGXGX",
"GXGXGXGXGXz R.lX< 1 : P G.tXiX0X8XyX0X8X8X8X0XyXuX6XP.K : > / ] ] cXZXlXb.{.S.S.S.S.S.S.S.S.!.U.C Z r P y t t a o.4 GXGXGXGXGXGX",
"GXGXGXGXGXC w = 9.zXjX5X7XsX0X0X8X8X0XfXiX8X0X0XyX9X3XkXR.k.kXzXzXzXlX.XS.D b.^.Q.C.!.D.D.S.^.!.P.K.P.Z y y d s GXGXGXGXGXGXGXGX",
"GXGXGXGXGXv z & 6.].3X7XsXsX7XwX0X8XiX%X%X0X0X0XiX0XqXfXsXfXdX|.5X'.A H J D b.S.A.Q.(.A.F.A.P.b.P.m.}.H C P y 4 GXGXGXGXGXGXGXGX",
"GXGXGXGXGXx 7.Y.# # w [.MXMX>XM.6XyXyX2.B qXeX0XfXfXfXfXsXBXn.M N j .   # m.{.Q.'.P.Q.V.F.^.<.v v J U.}.P.N GXGXGXGXGXGXGXGXGXGX",
"GXGXGXGXGXGXx hXF 8.FX9.y y 8.4XfXdXfX3X5XgX:X1.<.Z 4 e e = ].NXI v Y F H Q.S.).Y.Y.Q.A.^.^.H z x S G P.(.P.F GXGXGXGXGXGXGXGXGX",
"GXGXGXGXGXGXGX8.q.mXCX8.- = R zXkXk.jXjXkXkX3., , : o o o   R FXH b.{.{.}.!.Q.Y.U.).~.S.^.~.b.G n K z b.~.(.L.V GXGXGXGXGXGXGXGX",
"GXGXGXGXGXGXGXGXI R.T.8.E.XXT @ @ 1 1 ; ; ; ; ; E E ; > > , m x b.D.V.Q.U.U.Y.Y.~.^.^.S.D.(.).Y.A v n K.^.C.Q.U.T GXGXGXGXGXGXGX",
"GXGXGXGXGXGXGXGXGXGXGXGXz _.I.R K : ; W W ^ ^ ^ ^ ^ ] L , T T.U.{.{.^.V % % A _.C.F.F.D.^.^.U.U.P.b.K.U.~.S.^.U.C & GXGXGXGXGXGX",
"GXGXGXGXGXGXGXGXGXGXGXGXGXP U T H I h L ( i.i.` ` v.hXU U }.T.H F F F j * * D ^.S.D.A.D.P.P.n.P.U.{.{.U.K.S.F.!.K.j GXGXGXGXGXGX",
"GXGXGXGXGXGXGXGXGXGXGXGXGXGXGX. <._.R.E.9.E.R.R.W.E.E.].).}.v X X X X G  X~.~.!.S.U.Q.!.U.l ,.(.m.Q.U.F S Q.!.Q.}.S GXGXGXGXGXGX",
"GXGXGXGXGXGXGXGXGXGXGXGXGXGXS H e $ $ O $ $ $ $ $ - O $ # O x <.<.<.<.n.{.m.Q.U.J H {. XL.O N /.!.K.G C n C L.~.}.V GXGXGXGXGXGX",
"GXGXGXGXGXGXGXGXGXGXGXGXGXv `.$XB w w e 2 O % = & % & % & & G |.P.F.$X+XG.Z.^.S.J <.L.H v e D {.^.K.v m n x H /.}.A GXGXGXGXGXGX",
"GXGXGXGXGXGXGXGXGXGXGXGXGX6.>X-X*X;X-X@Xq.A Y _._./.(./._.~.Q.!.V :.;X=X&XM.F.S.{.L.b GXGXU.D.S.!.K.b b n n 6.^.}.V GXGXGXGXGXGX",
"GXGXGXGXGXGXGXGXGXGXGXGXGXGXk :.>.2.*X*X+XM S U % l /.(.(./.K.A b.F.H.&X*X&X+XF.U.L.n GXGXY.{.S./.6.b b b n Y !.|.V GXGXGXGXGXGX",
"GXGXGXGXGXGXGXGXGXGXGXGXGXGXGXV M >.=X=XoX-.v v # GXL.K.<.<.U v n.D.N.+X&X*XoXG.{.L.n GXGXY.~.S.^.n.U b n F K.U.b.x GXGXGXGXGXGX",
"GXGXGXGXGXGXGXGXGXGXGXGXGXGXGXV B >.*X*XoX-.N A S x GXGXGXGXGXC m.G.G.N.H.-X#XH.U.K.n GXGXL.).Q.C.Q._.G S _.{.b.GXGXGXGXGXGXGXGX",
"GXGXGXGXGXGXGXGXGXGXGXGXGXGXGXl N.#X*X=X*X#X2.N V x GXGXGXGXS q.+X%XH.N.H.&XoXZ./.P.C GXGXGXC L.{.~.<.I.P.K.U.I.GXGXGXGXGXGXGXGX",
"GXGXGXGXGXGXGXGXGXGXGXGXGXGXGX].G.oX=XoXOX;XM.M V GXGXGXGXGX<.G.-X&X+X+X#X%X#XV.J v GXGXGXGXT mXL.I.lXR.P.lXXXF GXGXGXGXGXGXGXGX",
"GXGXGXGXGXGXGXGXGXGXGXGXGXGX9.ZXH :.$X>.D 2XB.N b GXGXGXGXGXS A.-X*X&X&X*X-X@Xn.GXGXGXGXGXm lXCXn 8.DXR S CXlX= GXGXGXGXGXGXGXGX",
"GXGXGXGXGXGXGXGXGXGXGXGXGXGXGX9.FXNXD mXBX1.N S GXGXGXGXGXGXGXV %X-XM.-X-X+X(._.GXGXGXGXGXGXGXGXGXGXT GXGXGXGXGXGXGXGXGXGXGXGXGX",
"GXGXGXGXGXGXGXGXGXGXGXGXGXGXGXGXhXhX$ E.hX= e GXGXGXGXGXGXGXT ].(.`.5X'.G.5XI.b GXGXGXGXGXGXGXGXGXGXGXGXGXGXGXGXGXGXGXGXGXGXGXGX",
"GXGXGXGXGXGXGXGXGXGXGXGXGXGXGXGXGXGXGXGXGXGXGXGXGXGXGXGXGX= zXAXP 8.AXT.C ZXR.GXGXGXGXGXGXGXGXGXGXGXGXGXGXGXGXGXGXGXGXGXGXGXGXGX",
"GXGXGXGXGXGXGXGXGXGXGXGXGXGXGXGXGXGXGXGXGXGXGXGXGXGXGXGXGXGXGXGXGXGXGXGXGXGXGXGXGXGXGXGXGXGXGXGXGXGXGXGXGXGXGXGXGXGXGXGXGXGXGXGX",
"GXGXGXGXGXGXGXGXGXGXGXGXGXGXGXGXGXGXGXGXGXGXGXGXGXGXGXGXGXGXGXGXGXGXGXGXGXGXGXGXGXGXGXGXGXGXGXGXGXGXGXGXGXGXGXGXGXGXGXGXGXGXGXGX",
"GXGXGXGXGXGXGXGXGXGXGXGXGXGXGXGXGXGXGXGXGXGXGXGXGXGXGXGXGXGXGXGXGXGXGXGXGXGXGXGXGXGXGXGXGXGXGXGXGXGXGXGXGXGXGXGXGXGXGXGXGXGXGXGX",
"GXGXGXGXGXGXGXGXGXGXGXGXGXGXGXGXGXGXGXGXGXGXGXGXGXGXGXGXGXGXGXGXGXGXGXGXGXGXGXGXGXGXGXGXGXGXGXGXGXGXGXGXGXGXGXGXGXGXGXGXGXGXGXGX",
"GXGXGXGXGXGXGXGXGXGXGXGXGXGXGXGXGXGXGXGXGXGXGXGXGXGXGXGXGXGXGXGXGXGXGXGXGXGXGXGXGXGXGXGXGXGXGXGXGXGXGXGXGXGXGXGXGXGXGXGXGXGXGXGX",
"GXGXGXGXGXGXGXGXGXGXGXGXGXGXGXGXGXGXGXGXGXGXGXGXGXGXGXGXGXGXGXGXGXGXGXGXGXGXGXGXGXGXGXGXGXGXGXGXGXGXGXGXGXGXGXGXGXGXGXGXGXGXGXGX",
"GXGXGXGXGXGXGXGXGXGXGXGXGXGXGXGXGXGXGXGXGXGXGXGXGXGXGXGXGXGXGXGXGXGXGXGXGXGXGXGXGXGXGXGXGXGXGXGXGXGXGXGXGXGXGXGXGXGXGXGXGXGXGXGX",
"GXGXGXGXGXGXGXGXGXGXGXGXGXGXGXGXGXGXGXGXGXGXGXGXGXGXGXGXGXGXGXGXGXGXGXGXGXGXGXGXGXGXGXGXGXGXGXGXGXGXGXGXGXGXGXGXGXGXGXGXGXGXGXGX"
};
