/* XPM */
static char *b8d5eb278c2245b1bb9d2c08537ad6adALHKpoAl2tcxnCwa[] = {
/* columns rows colors chars-per-pixel */
"32 32 203 2 ",
"   c None",
".  c #1C3324",
"X  c #343D29",
"o  c #7B2A1F",
"O  c #79312E",
"+  c #27571A",
"@  c #356B1C",
"#  c #32661A",
"$  c #3D7B1B",
"%  c #39711D",
"&  c #2C661D",
"*  c #24433A",
"=  c #324132",
"-  c #2F5A39",
";  c #345B3A",
":  c #3A6B27",
">  c #3D7322",
",  c #3B732F",
"<  c #386D33",
"1  c #3F7033",
"2  c #417A1E",
"3  c #554339",
"4  c #417722",
"5  c #417821",
"6  c #417330",
"7  c #1E5742",
"8  c #244B45",
"9  c #26554C",
"0  c #275C53",
"q  c #355E59",
"w  c #365C56",
"e  c #1E6050",
"r  c #1A7055",
"t  c #256557",
"y  c #36655C",
"u  c #3C635D",
"i  c #2D755A",
"p  c #3A785A",
"a  c #2E694C",
"s  c #326C64",
"d  c #267A67",
"f  c #347569",
"g  c #387266",
"h  c #3C7B73",
"j  c #3E7B74",
"k  c #2A6E65",
"l  c #4A5945",
"z  c #6D504B",
"x  c #4C6E54",
"c  c #53665F",
"v  c #427459",
"b  c #746B5B",
"n  c #537F72",
"m  c #507168",
"M  c #627065",
"N  c #6E7A6B",
"B  c #9B3630",
"V  c #A2302F",
"C  c #A43030",
"Z  c #B63B3B",
"A  c #9C554C",
"S  c #A0514E",
"D  c #866965",
"F  c #847672",
"G  c #BF746F",
"H  c #B17974",
"J  c #D36565",
"K  c #408120",
"L  c #498B28",
"P  c #4B9522",
"I  c #529A2C",
"U  c #5B993C",
"Y  c #5AA82B",
"T  c #5EAC32",
"R  c #61B431",
"E  c #66BB36",
"W  c #69B93E",
"Q  c #6BC837",
"!  c #70CD37",
"~  c #72C93F",
"^  c #36805B",
"/  c #19906C",
"(  c #28876B",
")  c #3A837B",
"_  c #37887A",
"`  c #359579",
"'  c #559E5E",
"]  c #53A851",
"[  c #6CB056",
"{  c #70B14C",
"}  c #40857C",
"|  c #488576",
" . c #5A857B",
".. c #4F9266",
"X. c #69837F",
"o. c #6B8A78",
"O. c #6BAA60",
"+. c #6DB26F",
"@. c #7FBF6A",
"#. c #77A861",
"$. c #73CE44",
"%. c #78D046",
"&. c #6DC261",
"*. c #73CA66",
"=. c #A98777",
"-. c #86BB66",
";. c #83CC58",
":. c #8AC867",
">. c #95DB6E",
",. c #8BD771",
"<. c #99DC74",
"1. c #93D46F",
"2. c #3C8B82",
"3. c #3C9384",
"4. c #389887",
"5. c #3C9E93",
"6. c #17B986",
"7. c #39A68A",
"8. c #3AA697",
"9. c #3CAC94",
"0. c #3EA59A",
"q. c #3DA89A",
"w. c #37AA96",
"e. c #2EBD96",
"r. c #37B399",
"t. c #2CB189",
"y. c #3FBDA1",
"u. c #448F88",
"i. c #429387",
"p. c #45948B",
"a. c #449A8E",
"s. c #4E9D84",
"d. c #59958B",
"f. c #439E93",
"g. c #499990",
"h. c #5A9D93",
"j. c #649483",
"k. c #689689",
"l. c #769589",
"z. c #629B92",
"x. c #638982",
"c. c #48A78C",
"v. c #43A394",
"b. c #43AB91",
"n. c #42A599",
"m. c #4AA796",
"M. c #5FAD95",
"N. c #42B896",
"B. c #5AB495",
"V. c #5FA58A",
"C. c #6DB28B",
"Z. c #7EA093",
"A. c #72A190",
"S. c #67B19E",
"D. c #73B595",
"F. c #45A9A1",
"G. c #71B0A7",
"H. c #6AB6A1",
"J. c #26C799",
"K. c #3FC29A",
"L. c #26D29C",
"P. c #22DCA3",
"I. c #29D8A3",
"U. c #3FC5A5",
"Y. c #15EAA5",
"T. c #46C49A",
"R. c #70C197",
"E. c #44CEA9",
"W. c #4CC9A9",
"Q. c #44D3AA",
"!. c #49D3AD",
"~. c #48D9A9",
"^. c #52DFB5",
"/. c #59CDAC",
"(. c #6ECEB5",
"). c #61DDB7",
"_. c #62D4A9",
"`. c #4CE4B5",
"'. c #49ECB6",
"]. c #4CE6B9",
"[. c #58E8B9",
"{. c #4EF5BD",
"}. c #4CFDBE",
"|. c #52F3BD",
" X c #51FCBE",
".X c #41E3AA",
"XX c #62E3BC",
"oX c #64E2AC",
"OX c #56EEC0",
"+X c #4DFEC1",
"@X c #52F7C3",
"#X c #51FDC2",
"$X c #58F3C1",
"%X c #838B81",
"&X c #889C97",
"*X c #BB9D95",
"=X c #86A299",
"-X c #A0A29F",
";X c #91BFB7",
":X c #CB8080",
">X c #86CABD",
",X c #DAD1CF",
"<X c #EBECE9",
/* pixels */
"                                                                ",
"                                                                ",
"                                                                ",
"                                                                ",
"                                                                ",
"                                            , > L               ",
"                              ] &.*.*.O.[ I T P L @             ",
"                            &.,.<.,.:.:.:.{ I R R @             ",
"          3.(             ' +.+.O.' p < U { ;.~ Q 5 +           ",
"        b.|.W.( ( N.N.N.m.c.s.i ` T.[.a -.>.>.%.Q Y @ :         ",
"        b.Q.`.`.`.@X!.N.W.XX(./.|.+X|.i #.<.>.%.! Y # @         ",
"        3.K.{.+X@XE.w.r.W.$X^.@X X}.|.c.; 1.>.%.Q R % @ :       ",
"        b.{.}.}.'.r.r.E.@X#X@XW.!.|.@Xb.9 :.~ ! E P % # >       ",
"      c | `.}.}.{.`.!.].+X|.B.=.Z.c.W.n.f 6 W E P $ 5 & >       ",
"      z A B.@X+X{.Q.r.`.#X_.A V ,X=X) n.) . 6 2 $ 2 % @ >       ",
"      D A k.`.+X'.r.U.{.{.l.G Z :X,XG.n._ 9 v , $ 2 @ % 2       ",
"      -XS o.!.+X}.'.{. X[.M J J J <X>Xn.8.5.a.p , > @ > >       ",
"      m b o.`.+X}. X X X].V.o.%X*X>Xa.f.0.n.0.f.f p < >         ",
"      y g S.oX~.{..X~.|.|.[.).B.} 0 k f.m.9.8._ ) p.p <         ",
"       . .Z.x o.R.C.A...l X X x.j j a.m.g.n.n.h w ) a.j         ",
"         .x. .M 3 o B B V O 3 n f.3.s u.n.8.n.g.j 2.n.g.u       ",
"              u v z b F F N } s 0 0 k 4.0.0.2.3.v.u.2.n.)       ",
"              ` r 7 * 8 8 8 8 f _ 4.r.5.2.3.t _ a.s y p.p.      ",
"              t.6.L.( g f i.a.2.4.P.P.r.u.q ) n.p.w w u.i.      ",
"              t / Y.6.t 9     f 4.e.P.J.p.  2.f.f.m n 3.        ",
"              | t.Y.L./ t     4.I.e.I.J.2.    d.h.h.h.d.        ",
"              =XS.b.b.d       ` I.I.I.9.      &Xx.l.l.          ",
"                              =XM.S.S.k.                        ",
"                                                                ",
"                                                                ",
"                                                                ",
"                                                                "
};
