/* XPM */
static char *bd5e0b7107b2489aa03f64649705c097AQlgpj76ItDLdxKK[] = {
/* columns rows colors chars-per-pixel */
"64 64 256 2 ",
"   c #010201",
".  c #090102",
"X  c #000A02",
"o  c #030309",
"O  c #010B0B",
"+  c #0A090A",
"@  c #001302",
"#  c #021708",
"$  c #011513",
"%  c #071A18",
"&  c #131719",
"*  c #0B090D",
"=  c #290100",
"-  c #022500",
";  c #062A05",
":  c #093705",
">  c #01261B",
",  c #143410",
"<  c #1E1F21",
"1  c #182A27",
"2  c #05362B",
"3  c #083A35",
"4  c #183935",
"5  c #093027",
"6  c #273835",
"7  c #2E2F2D",
"8  c #322D17",
"9  c #581711",
"0  c #71130F",
"q  c #542915",
"w  c #542D28",
"e  c #762F2B",
"r  c #194C0F",
"t  c #254717",
"y  c #255914",
"u  c #26580E",
"i  c #226608",
"p  c #2B6418",
"a  c #34671C",
"s  c #3A781A",
"d  c #2E760A",
"f  c #064436",
"g  c #144439",
"h  c #085636",
"j  c #2D5130",
"k  c #366B23",
"l  c #3C7624",
"z  c #336D34",
"x  c #0C681E",
"c  c #42791D",
"v  c #524537",
"b  c #437A23",
"n  c #467929",
"m  c #487736",
"M  c #4A7234",
"N  c #764439",
"B  c #12554B",
"V  c #284B46",
"C  c #394948",
"Z  c #28564A",
"A  c #285B56",
"S  c #365A55",
"D  c #36524D",
"F  c #186B55",
"G  c #1A7359",
"H  c #106B4E",
"J  c #276557",
"K  c #35655C",
"L  c #306E4F",
"P  c #1C7A63",
"I  c #376A65",
"U  c #287668",
"Y  c #38756A",
"T  c #397973",
"R  c #2B7069",
"E  c #4A554F",
"W  c #715652",
"Q  c #4C6E4C",
"!  c #437B75",
"~  c #4F6F6B",
"^  c #6C756E",
"/  c #72675B",
"(  c #203F41",
")  c #910E0F",
"_  c #AB1514",
"`  c #B0211E",
"'  c #903230",
"]  c #AF2E30",
"[  c #A64A3B",
"{  c #AD5551",
"}  c #89726B",
"|  c #A7655E",
" . c #D45557",
".. c #D46A69",
"X. c #DD6564",
"o. c #C93B31",
"O. c #3A8316",
"+. c #3B8A0C",
"@. c #358937",
"#. c #458B1B",
"$. c #488727",
"%. c #509531",
"&. c #58AB2C",
"*. c #66B637",
"=. c #629D3F",
"-. c #6CCA34",
";. c #6DC839",
":. c #72C939",
">. c #72D037",
",. c #379648",
"<. c #158D6B",
"1. c #29866B",
"2. c #3B867A",
"3. c #36896F",
"4. c #08A673",
"5. c #2AA77C",
"6. c #048B5F",
"7. c #4E914E",
"8. c #72B256",
"9. c #458679",
"0. c #509271",
"q. c #6E8B77",
"w. c #56A76E",
"e. c #75B568",
"r. c #5CA551",
"t. c #57CA57",
"y. c #75C846",
"u. c #7BD14C",
"i. c #72CA6C",
"p. c #57CA65",
"a. c #8A8B79",
"s. c #88B171",
"d. c #A99B7E",
"f. c #83D352",
"g. c #8CDA6B",
"h. c #96D86C",
"j. c #8DD973",
"k. c #99DB75",
"l. c #92CB72",
"z. c #A4DA7C",
"x. c #95E170",
"c. c #A6E37D",
"v. c #887D81",
"b. c #3A8983",
"n. c #3A9788",
"m. c #3D9D93",
"M. c #2D9780",
"N. c #2CA98B",
"B. c #38A58B",
"V. c #3CA594",
"C. c #34AC93",
"Z. c #3CAA95",
"A. c #3DA59B",
"S. c #3CAA9B",
"D. c #36A895",
"F. c #2BB694",
"G. c #36B697",
"H. c #2BB48E",
"J. c #3BAFA1",
"K. c #19B78A",
"L. c #46988A",
"P. c #569889",
"I. c #4C9C93",
"U. c #469D95",
"Y. c #539B94",
"T. c #4B8B85",
"R. c #689C94",
"E. c #769893",
"W. c #759287",
"Q. c #48A78B",
"!. c #43A394",
"~. c #4CA394",
"^. c #43A59B",
"/. c #4BA49B",
"(. c #44A99B",
"). c #4CAA9B",
"_. c #48AA95",
"`. c #52A495",
"'. c #57A69A",
"]. c #47B798",
"[. c #55B496",
"{. c #66A797",
"}. c #74AE95",
"|. c #57AAA2",
" X c #57B6A3",
".X c #48ADA2",
"XX c #6CB0A4",
"oX c #4D9CA1",
"OX c #18CA95",
"+X c #3AC59B",
"@X c #2ACB97",
"#X c #29DAA3",
"$X c #3CD7A9",
"%X c #35CEA5",
"&X c #19EAA7",
"*X c #17F5AB",
"=X c #13F4AA",
"-X c #28E7AC",
";X c #26F0B1",
":X c #1CD8A0",
">X c #48C9A6",
",X c #56CAAA",
"<X c #45D9AB",
"1X c #54DAB5",
"2X c #4ED7B0",
"3X c #6BCEB4",
"4X c #4AE8B8",
"5X c #56E9BB",
"6X c #4CFDBC",
"7X c #49F9B9",
"8X c #53F4BD",
"9X c #52FCBD",
"0X c #58F7BC",
"qX c #47E4AD",
"wX c #68E5B8",
"eX c #71EEBD",
"rX c #58C791",
"tX c #56EAC3",
"yX c #4CFDC3",
"uX c #49FDC4",
"iX c #5BF5C3",
"pX c #53FCC2",
"aX c #5AFBC3",
"sX c #53FCCA",
"dX c #59F7C8",
"fX c #4FE7C1",
"gX c #6AECC5",
"hX c #64F6C9",
"jX c #71F1CC",
"kX c #6EDCC3",
"lX c #899690",
"zX c #A69998",
"xX c #95B793",
"cX c #AAAB9A",
"vX c #91B1AB",
"bX c #ADB2AB",
"nX c #D8A29D",
"mX c #9AD68A",
"MX c #9BE28E",
"NX c #A8E487",
"BX c #ABED96",
"VX c #8ECEB4",
"CX c #A4DA81",
"ZX c #B8BDC0",
"AX c #B0D3CE",
"SX c #83E9C5",
"DX c #AAE6D6",
"FX c #99DEC3",
"GX c #F5CFD3",
"HX c #DBFDF9",
"JX c #CCF0EB",
"KX c #FFE8E6",
"LX c #E9FEFD",
"PX c #F9FDFB",
"IX c #F2F1E9",
"UX c #CBDAD7",
/* pixels */
"                    .   . .                     . . . .           o       .       X   . . .             .                     . ",
"                                                  . . .             X     .     X       . o                   .                 ",
"                                                                    o     . . o o o       .   X X . - 8     o   o o             ",
"                                              o o             o         . o . o               O X @ : j @   o o o o             ",
"                                          o o             o o o o     X     . o     X       # , t : l =.,   o           o o     ",
"                                        o o                     X @ X - X X X X X   X X X X - j j r &.l.,   @           o       ",
".                                                           . X ,.,.,.,.,.,.7.z r t , t t r p 8.%.a O.%.u 8 a j X               ",
"                                          o           X @ @ @ - r.t.t.t.t.p.p.@.y a a p u i O.f.*.d O.O.u a m n X               ",
"                                                      X x w.r.r.i.j.j.x.g.x.i.h.k.l.h.8.*.*.:.y.&.d &.y.a t n a @         .   . ",
"        o o                                 o     X # - @.p.t.t.x.mXk.x.j.k.x.k.k.k.h.f.f.*.*.:.&.+.&.u.s y k k @ .         +   ",
"        . o     o o         o                   X X r e.i.x.j.g.h.k.j.j.NXmXNXNXz.z.h.h.h.d d d &.y.>.;.#.c y r X X           o ",
"            $ 1 > 1 $                 o     o X @ r @.i.i.NXj.z.h.k.j.j.8.w.7.8.s.8.f.f.8.=.&.%.&.y.-.:.#.c j t @         o o   ",
"        o X 5 K Z J % X O             o     o X : }.rXMXmXBXmXMXNXNXBXe.: ; - r n a d i s c.h.:.y.-.-.y.+.d y r X X             ",
"        > Z 3._.G.].B 2 4 1 X $ 4 4 4 4 4 4 4 r h ,.r.w.r.w.0.w.7.7.7.,.L.M.3.j : %.8.8.8.k.h.f.y.y.-.-.*.%.p y t ,   .         ",
"      o 4 `.,XhX0XhX<.F ~ Z X > K F F F F F H H Z F F h H h j B : f ; H jXjXSXG @ s.CXk.c.h.x.x.u.-.-.>.y.y.i u 7.t .           ",
"    o   2 ~.%XsXuXiX<XrXG B g U ,X>X>X,X>X>X,X,X X'.|.{.'.XXG h ].].].,XdXtXjXG @ s.z.h.h.h.k.x.u.-.-.-.-.:.i u n M j , X o     ",
"        3 ~.>XpXiXtXiXgX6.G H 5.hX0XaXhXhXhXjXhXgX3X3X3X3XVXF f 1XaXhXaXyXpXjXG o 8.c.x.x.k.h.x.g.-.>.-.:.*.d i n n M t . X .   ",
"X     o 3 `.>XdX$XH.8XiX1X1X2X4X7XyXaX$XF.G.F.J.+XgXwX3X3XvX3X1X8X9X6X6X6X9XgXG X s.NXg.h.h.k.h.u.y.>.-.:.:.s d y y b r + + o . ",
"      X 3 I.,XwX+X@XqXaXdXdXdX8XpXpXtX+XN.D.J.D.G.hX5X1X3X XjXdX9X7X6XpX6X9XhX<.@ q.l.mXz.k.k.k.u.>.-.-.:.:.#.a u p n r @ X   . ",
"      o 3 ).1.H +XtX6XsXsXsXdXiXsX<XH.C.V.^.J.N.G.hXiXhXkX3XtXuXpX9X9X6X7X8XhXG.0.r # l.k.k.k.x.u.-.-.-.>.*.#.s u p n n Q ,     ",
"        3 |.n.P $XpX9XuXyXuXpX8XfX>XB.Z.V.D.C.G.<X5XpXaX3X,X5XsX6X9X9X9X7X7XaX,X_.f @ s.z.z.h.g.u.y.>.-.:.:.c s u a b a m , . . ",
"      o 3 I.,XhX9X6X9X6XyXyX6X<XN.S.Z.Z.V.D.F.hXdXdX9XtXgX2XtXpX9XyX9X9XyXyXiX+X(.2 # xXz.x.g.;.t.>.-.>.:.y.#.s $.a r a %., X X ",
"    o o 3 ~.>XtXyX7X6XyX7XyX6X4XS.S.!.D.D.>X+XyX6XyXpX8XtX1X2X<X1X<XpX7XuXuXdX>XQ.f # s.z.f.y.-.>.-.-.y.&.&.#.c n k u a n u , @ ",
"      X 3 ).>XpX7XyX7X6X6X6XpXqXN.D.C.B.N.5XaX7XuXyX6XiXdXjX].B.B.C.hXaXsXsXhX>X~.5 + mXc.:.-.-.>.-.>.y.#.d c c n k u a n n M ; ",
"o   $ D K 3.G.pX6XuX7X6X7X7XyX4X$X2X<X<X<X8XpXyXuXuXyX0XwX[.{.{.{.XX5.].hX4X>X.X^.U J z l y.y.-.;.u.&.#.#.s c c n l r k b c M - ",
"X   % lXq.4 w.hX8XyX6X6X7X7XyXpXsXiXsXhXiXaXpXpXuX7X0XeX}.q.zXzXzXE.j U eX,XN.(.^.U.'.- ; e.y.u.y.y.&.O.d s c c b k x k b s M - ",
"    $ ~ W W q.{.1XpX6XyX6X6X8X9XsX<X+XJ.G.tXdXuXyXpX1X}.| [ ' e GXUXW.q.Y L./.A.A..XY.> - Q %.$.#.%.O.s O.c b c n k u p c b M - ",
"X o + E e ' W P.,XaX0XpXyXpX9X0XdX$XN.C.N.fXsXsX6X0X,Xq.[ ` _ 0 GXPXcXW.Z Y oX.XA.oXT.> $ j k l s d s l #.c c c n p y p b b M ; ",
"    $ E ' ' / 0.1XaX8X9X6X7X6X4XF.G.D.C.F.fXsXyXyX0X3Xs.[ _ ) ) GXKXPXUXV T oX^.J.U.R.% # E z m $.b s O.s c c l u p s s c b M - ",
"o O % W ] ' } W.,X8XpXpXsXuXyXqXN.J.D.D.F.fXpX6X7XeX}.}  .o._ ) GXKXPXUX~ 9.|.m.A.A.Y.> > S E m z l b s c b b b r a $.c c n M - ",
"X D ~ zX| ' | zXY.G.qXyXuXyX9XqXC.N.N.1XdXaX6X9X4XQ.} e nXKX] ) ) ' KXPXLXDXn.^.A.A.m.B g R.0.Z z n $.s s c n n y p c d c n M - ",
"# V ~ bX..] { zXE.B.8XuXuXyX6XqXG.>X%XfXsXpX6X9X4XQ.| e nXGX ._ _ ] KXLXLXDXL.A.A.A.D.F F ~.L.I L z l l c c s a y p c c c c j # ",
"@ V ~ PXGX0 [ bXR.D.fXsX7X7X9X9XdXaXyXpX6X6X6XyX4XI./ 9 nXIXX. . ...KXPXPXDXm.J.A.A.J.S.^././.`.9.j z $.c b u i n n n c n : .   ",
"@ D ~ UXzX9 N / P.V.fXsX9X6X7XpX6X7X6X6X6X6XuXyX5XY.^ w | nXX. .X...IXPXAXVXm.D.A.A.J.A.A.A.(.^.2.3.L z z z a p n n a b M , X . ",
"$ V I VXa.0 q 8 Q B.1XdX6X9XyXyXpX9X7X9X6X6XuXyX4XL.~ q q 9 [  . ...LXDXT.m..XA.^.A.A.A.A.A.A.^.^.).T J z j Q z l l b $.m ,     ",
"$ S L Z E a.a.a.}.1XiXaX9X7X6X6X9X0X8X9X7XyXyXuX8X1XxXq.s.a.d.cXcXzXVXvX/.n.R m.(.^.V.!.^.S.Z.A.A.^.b.2.9.9.L z z l n u , @   X ",
"o A Z @ g FXFXSXgXhX9X7X0X0X9X6XpXaX9XhX9X9X6X6X7X0XgXwXgXjXSXVXFXVXT.Y.|.n.B b.(.Z.V.!._.S.D.Z./.I.|.oXoX|.J z Q z m t + X     ",
"O V I ! I f B 1.rX0X0XeX@X%X9X7XyX@X6.<X0X0XaX0XhX0XaXhXtXhXB.<.1.1.3 3 5 B U.m.^.!.!.Q.V.D.C.S.2.R R R m.oX9.9.L j , @ X .     ",
"$ V K }.! $ g Z }.VXMX3X5.H.sXyX9X@Xx %XhX0X0XwXwXwXwXwXwXSX1.J J B % $ $ B .X^.~.Q.I.I.V.Z.S.(.9.Z A J T.Y.|.L.G g X   X   . . ",
"o o > W.E.9.vXIXq.t j j VXeXjXwXeXwXeXjXeX3.G Y j ; ; ; > # VXHX~ I T.Y.T.L./.A.`.`.Y.~.V.Z.(.(.2.Z S S I R L.U.~.9.S 1     . . ",
"o o % ~ 0.P.VXLXq.1 j 7 bXbXmXxXxXxXxXcXmXQ v v w = = = = . cXHXT U ^.^./.U.^.!.Y.Y.I./.!.A.).oXb.R K E D A ~.!._.T.Y 4 O o     ",
"o       4 R.R.R.W.W.lXW.w 7 8 q q q q 9 9 9 9 ) 0 0 9 e 9 w C A b.(.B.(./.|.~.`.Y.~.~.(.A.A.(.U.oXY.T Z S K L.^.V.!.Y.9.E <     ",
"        % ~ ~ I ~ ~ P.P.S v w q 0 _ ) _ ` ` ` ` _ ] e w v E I T m.V.V.n.R Y T T.`.!.S.D.S.D.(.(.I.|.b.R Y Y I.(.V.(./.T E 1     ",
"  o   .   o o   X @ 9.{.E.lXD v 0 ) `  .X... .X.....} w ^ E.R.|.'.'.|.2.$ $ o F |.V.S.D.S.S.^.(.L.L.I.)././.oXY.A.D..XT A > X   ",
"          o o + + X j S C D 9.~ E / / } q.a.} v.v.v.! T b.|.Y A A S A A B B B b.^.A.A.V.A.V.L.2.n.Q.I.m.^.oX2.b.A.D.A.U.b.3 o . ",
". .     X   . . .       @ > [.'.}.E.lXE.E.R.R.E.E.E.XXXX/.|.3 O $ O $ 2  X.X|.!.(.^.A.oXV./.L.B U _.!.!./.I.I A /.^.A.U.|.(   . ",
"o o         o       6 V I J 3 ( 4 4 6 6 6 6 6 6 j 4 6 g 4 g J Y U U U T ^.^.m.U.U.b.T m.V._.! > J ).V.~.2.Y K K I T./.U.'.g X   ",
"o   o         X   o g R [.M.; # # @ X X X O O O X O +   O $ T [.'.).].G.G.N.V.(.).R F U.`.'.Y # B .XA.I.I Z D S Z Y ~.I.|.f O   ",
"                  X Y w.#X#XOXOX@X5.,.J Z ! 9.9.2.b.2.2.T.2.n./.T P %X#X-X%XN.Z.D.m.oXI K 2 f b.M..XA./.Y S S S S I ).m.'.f O   ",
"    . o             Y _.%X-X-X;X&X#X].1.J T.'.L.).!.).).(.^.!.U.F P $X;X*X:XK.C.A.oXY.I ( O f '.J.A.V./.I S S S S ! !.!.'.g o + ",
"      .           . O $ F G P 4.*X&X-X6.H I S $ 2 '._.Q.^.'.T A m.A.F.OX;X=X;X@XN.U.Y.I D * 3 '.^.^.!.`.I D S S D ~ U.!.'.g X O ",
"      . .       o o o X Z J H 4.*X=X;X4.F A A % 3 9.2.2.3.T ~ A n.J.N.F.-X=X;XOXJ.^.oXI C o 5 '.U.m.(.).Y I S S I T oXn.9.4 o   ",
"                    X O K F H 4.=X=X=X4.H J K K V O O o O O g K n.N.].C.H.OX;X:XF.m.I.I D   g |.|.^.V.B.~.R.A I Y./.|.B O O o o ",
"                  X o O A P <.K.=X=X*XK.<.P F K Z X . o o o V 3.G.+XG.H.N.@X-XOXN.A.L.K C   5 K 2.I.m.).~.L.Y ! '.m.'.A O o     ",
".               o   o o g P <X;X*X*X=X-X$X<.F J V O o *     T ].#X-XK.N.H.OX-X:XC._.'.! D o o * V P.I./.9.T.{.'.2.L.XXZ o o +   ",
"              X   o   o vXXX5.OX*X:X4.-X$X6.H K V X o   o o U G.-X&X:X%X@X-X$X@XB.R B 5 1   & 1 ~ DXR.I vXAX! 9.FXvX! g o       ",
"                      * LXJXB <.1X4.h G.,X<.F K C O o   o X I ].-X=X&X;X&X;X-X@X_.2 X X   X & E vXPXE.V UXLXE ~ LXAXE 4         ",
"        . .           O ^ lXDXvXU [.DX[.1.G A 1 %         X Z 1.#X;XOX#X;X&X@XZ.'.2 o o     o & 7 E 6 & E E 1 1 E C & *         ",
"              .       O 7 ^ LXAX4 vXLXW.g K S X O     o o o V J +X<X5.B.<X+Xn.P.R.3 o             .         X o o   o . . .     ",
"                        * & 7 < & < 1 & $ > % X     +   1 C bXHX9.1.HXDXH  XHX0.# $ X         . . .     o o .       . . .       ",
"                        o       X   + o *     o o       1 E bXPXQ D IXAX4 E.LX~   O     . .     o . . .                   X     ",
"                    o   o o             + . o     .     O o & + o X % & * * & * o     X . . o     . . .                         ",
"                X             o       X     o     .           X   +   o o o . .         .   X o           X           . .     o ",
"                        .             o             . .                   X . . o       . .   X o o   X       .       . . o     "
};
