/* XPM */
static char *result[] = {
/* columns rows colors chars-per-pixel */
"64 64 42 1 ",
"  c #77BCB3",
". c #7ABEB5",
"X c #7FC0B8",
"o c #87BCB5",
"O c #96B8B4",
"+ c #95BFBA",
"@ c #83C3BA",
"# c #8AC5BD",
"$ c #95C3BE",
"% c #98C2BD",
"& c #8EC7C0",
"* c #8EC9C1",
"= c #94CBC4",
"- c #9ACBC5",
"; c #9BCFC8",
": c #9CD1CA",
"> c #A2D4CD",
", c #A6D7D1",
"< c #ADD7D1",
"1 c #A7D8D2",
"2 c #ABD9D4",
"3 c #B2DCD6",
"4 c #B5DED9",
"5 c #BADFDA",
"6 c #BCE1DD",
"7 c #C1E3DF",
"8 c #C5E5E1",
"9 c #CAE6E3",
"0 c #CDE8E5",
"q c #D1E9E5",
"w c #D5ECE9",
"e c #DBEEEC",
"r c #DEF0EE",
"t c #E1F1EF",
"y c #E4F3F1",
"u c #ECF6F5",
"i c #EFF8F7",
"p c #F0F7F6",
"a c #F0F8F7",
"s c #F5FAFA",
"d c #FFFFFF",
"f c None",
/* pixels */
"ffffffffffffffffffffffffffffffffffffffffffffffffffffffffffffffff",
"ffffffffffffffffffffffffffffffffffffffffffffffffffffffffffffffff",
"ffffffffffffffffffffffffffffffffffffffffffffffffffffffffffffffff",
"ffffffffffffffffffffffffffffff    ffffffffffffffffffffffffffffff",
"ffffffffffffffffffffffffff   -<44<=   ffffffffffffffffffffffffff",
"fffffffffffffffffffffffff =0sddddddd0= fffffffffffffffffffffffff",
"fffffffffffffffffffffff @qddddddddddddq@ fffffffffffffffffffffff",
"ffffffffffffffffffffff =pddddddddddddddp=.ffffffffffffffffffffff",
"fffffffffffffffffffff #sdddddddddddddddds=.fffffffffffffffffffff",
"fffffffffffffffffffff@udddddddddddddddddst=#ffffffffffffffffffff",
"ffffffffffffffffffff qddddddddddddddddddsy4=ffffffffffffffffffff",
"fffffffffffffffffff =dddddddddddddddddddsr7,=fffffffffffffffffff",
"fffffffffffffffffff 0dddddddddddddddddddse62;fffffffffffffffffff",
"fffffffffffffffffff.sdddddddddddddddddddse82,fffffffffffffffffff",
"fffffffffffffffffff=ddddddddddddddddddddse62,*ffffffffffffffffff",
"ffffffffffffffffff <ddddddddddddddddddddse52,=ffffffffffffffffff",
"ffffffffffffffffff 4dddddddddddddddddddduq421;ffffffffffffffffff",
"ffffffffffffffffff 4dddddddddddddddddddsy8321=ffffffffffffffffff",
"ffffffffffffffffff <dddddddddddddddddddiw6221*ffffffffffffffffff",
"fffffffffffffffffff=ddddddddddddddddddsy8622,*ffffffffffffffffff",
"fffffffffffffffffff.sddddddddddddddddduq6222:fffffffffffffffffff",
"fffffffffffffffffff qdddddddddddddddsiw82222=fffffffffffffffffff",
"fffffffffffffffffff =ddddddddddddddsuw66222,#fffffffffffffffffff",
"ffffffffffffffffffff qddddddddddssue0632222=ffffffffffffffffffff",
"fffffffffffffffffffff@pddddddssiyr066222,3:#ffffffffffffffffffff",
"fffffffffffffffffffff *sddsiuyeq866322223>@fffffffffffffffffffff",
"ffffffffffffffffffff o:=isye086422222223>:@ ffffffffffffffffffff",
"fffffffffffffffffff =pd5@70643322222232:4di=.fffffffffffffffffff",
"ffffffffffffffffff -sddde;>2222222232>:eddds-Xffffffffffffffffff",
"fffffffffffffffff =sdddddd9>>,,,12>->0dddddds=#fffffffffffffffff",
"fffffffffffffffff@idddddddddsq5446wsdddddddsse=*ffffffffffffffff",
"ffffffffffffffff qddddddddddddddddddddddddddir5:ffffffffffffffff",
"fffffffffffffff ;ddddddddddddddddddddddddddsur0>=fffffffffffffff",
"fffffffffffffff tddddddddddddddddddddddddddsue83,fffffffffffffff",
"ffffffffffffff -dddddddddddddddddddddddddddsue73,;ffffffffffffff",
"ffffffffffffff 9dddddddddddddddddddddddddddssr831:ffffffffffffff",
"ffffffffffffff pddddddddddddddddddddddddddddir832,ffffffffffffff",
"ffffffffffffff#ddddddddddddddddddddddddddddssy032,=fffffffffffff",
"fffffffffffff :dddddddddddddddddddddddddddddsy0621=fffffffffffff",
"fffffffffffff <dddddddddddddddddddddddddddddsy0621;fffffffffffff",
"fffffffffffff 4dddddddddddddddddddddddddddddsy062,:fffffffffffff",
"fffffffffffff 4dddddddddddddddddddddddddddddir832,:fffffffffffff",
"fffffffffffff 3ddddddddddddddddddddddddddddsuw8311;fffffffffffff",
"fffffffffffff ;dddddddddddddddddddddddddddduy0421,;fffffffffffff",
"ffffffffffffff#ddddddddddddddddddddddddddssyw8321,=fffffffffffff",
"ffffffffffffff idddddddddddddddddddddddddsye862211ffffffffffffff",
"ffffffffffffff 9dddddddddddddddddddddddssue063212:ffffffffffffff",
"ffffffffffffff -ddddddddddddddddddddddssye86221,1=ffffffffffffff",
"fffffffffffffff tddddddddddddddddddddsuyw8622,2,1fffffffffffffff",
"fffffffffffffff ;ddddddddddddddddddsuurq8532,,,,;fffffffffffffff",
"ffffffffffffffff qddddddddddddddssiurw96422,,,,,ffffffffffffffff",
"fffffffffffffffffoudddddddddddssuuyq0862222,,,,=ffffffffffffffff",
"fffffffffffffffOOo-sssssissssuuyyw0863222,,,,,-OOfffffffffffffff",
"ffffffffffffffOOOOo;yuyyyryrrrrq066322211,,,,;OOOOffffffffffffff",
"ffffffffffffOOOOOOO#:0q09900888662222,,,,,,,;OOOOOOOffffffffffff",
"ffffffffffffOOOOOOOO&:34443343322111,,,,,,,-OOOOOOOOffffffffffff",
"ffffffffffffOOOOOOOOO%,,,22222,211,,,,,,2>$OOOOOOOOOffffffffffff",
"ffffffffffffOOOOOOOOOOO-,,,,,,,,,111,,,,=OOOOOOOOOOOffffffffffff",
"ffffffffffffffOOOOOOOOOOO->,,,,,,,,>1:$OOOOOOOOOOOffffffffffffff",
"fffffffffffffffOOOOOOOOOOOOO%-;;--$%OOOOOOOOOOOOOfffffffffffffff",
"ffffffffffffffffffOOOOOOOOOOOOOOOOOOOOOOOOOOOOffffffffffffffffff",
"fffffffffffffffffffffffOOOOOOOOOOOOOOOOOOfffffffffffffffffffffff",
"ffffffffffffffffffffffffffffffffffffffffffffffffffffffffffffffff",
"ffffffffffffffffffffffffffffffffffffffffffffffffffffffffffffffff"
};
