/* XPM */
static char *e94d4bdd980a4b92cc082f35c31717efIi3HyoAEayKL1ahd[] = {
/* columns rows colors chars-per-pixel */
"32 32 165 2 ",
"   c None",
".  c #96B7B4",
"X  c #91BAB5",
"o  c #96B8B4",
"O  c #96B9B5",
"+  c #96BAB6",
"@  c #97BAB6",
"#  c #94BCB7",
"$  c #96BCB8",
"%  c #97BDB8",
"&  c #98BEB9",
"*  c #98BFBB",
"=  c #99BFBB",
"-  c #89C5BD",
";  c #8DC7BF",
":  c #99C0BB",
">  c #9CC6C1",
",  c #9DC7C2",
"<  c #90C8C1",
"1  c #92CAC2",
"2  c #93CAC3",
"3  c #91CBC4",
"4  c #94CBC4",
"5  c #9ECBC5",
"6  c #9ECBC6",
"7  c #9FCBC6",
"8  c #9FCDC7",
"9  c #9FCFC9",
"0  c #9BD1CA",
"q  c #9ED2CC",
"w  c #9FD3CC",
"e  c #A0D0CA",
"r  c #A1D1CB",
"t  c #A3D2CB",
"y  c #A5D1CB",
"u  c #A2D2CC",
"i  c #A2D3CD",
"p  c #A5D3CD",
"a  c #A2D5CE",
"s  c #A3D5CF",
"d  c #A4D4CE",
"f  c #A7D4CE",
"g  c #A8D4CE",
"h  c #AAD4CF",
"j  c #AAD5CF",
"k  c #A6D6D0",
"l  c #A7D6D0",
"z  c #A6D7D1",
"x  c #A7D7D1",
"c  c #A7D7D2",
"v  c #ACD6D0",
"b  c #ADD7D1",
"n  c #A7D8D2",
"m  c #A8D8D2",
"M  c #A9D8D2",
"N  c #A9D8D3",
"B  c #A9D9D3",
"V  c #AAD9D3",
"C  c #ABD9D3",
"Z  c #ABD9D4",
"A  c #ACD9D4",
"S  c #ADD9D4",
"D  c #ACDAD4",
"F  c #ADDAD5",
"G  c #AEDAD5",
"H  c #AFDAD5",
"J  c #AEDBD5",
"K  c #AFDBD5",
"L  c #B1D6D1",
"P  c #B3DAD5",
"I  c #B4DAD5",
"U  c #B0DCD6",
"Y  c #B1DCD7",
"T  c #B2DCD7",
"R  c #B2DDD7",
"E  c #B3DDD8",
"W  c #B5DED9",
"Q  c #B6DED9",
"!  c #B7DFDA",
"~  c #B9DEDA",
"^  c #B8DFDA",
"/  c #B8DFDB",
"(  c #BADFDB",
")  c #BDDEDA",
"_  c #BDDFDA",
"`  c #BCE1DC",
"'  c #BDE1DD",
"]  c #BEE2DD",
"[  c #BFE2DE",
"{  c #C0E1DD",
"}  c #C2E1DD",
"|  c #C0E3DE",
" . c #C0E3DF",
".. c #C1E3DF",
"X. c #C6E3DF",
"o. c #C2E4DF",
"O. c #C4E4E1",
"+. c #C5E5E1",
"@. c #C6E5E1",
"#. c #C7E6E2",
"$. c #CCE6E3",
"%. c #CCE7E3",
"&. c #CBE8E4",
"*. c #D0E8E5",
"=. c #D1E8E5",
"-. c #D3E9E6",
";. c #D0EAE7",
":. c #D1EAE7",
">. c #D1EBE7",
",. c #D3EAE7",
"<. c #D4EAE7",
"1. c #D3EBE8",
"2. c #D5EBE8",
"3. c #D7EBE8",
"4. c #D7EBE9",
"5. c #D6ECE9",
"6. c #DAEDEB",
"7. c #D8EEEB",
"8. c #DAEEEB",
"9. c #DBEEEC",
"0. c #DBEFEC",
"q. c #DEF0EE",
"w. c #DFF1EF",
"e. c #E0F0EE",
"r. c #E3F1F0",
"t. c #E2F2F0",
"y. c #E4F1F0",
"u. c #E4F3F1",
"i. c #E6F4F2",
"p. c #E7F4F2",
"a. c #E7F4F3",
"s. c #E8F5F3",
"d. c #E9F5F3",
"f. c #EAF5F3",
"g. c #E9F5F4",
"h. c #EAF6F4",
"j. c #EBF6F5",
"k. c #ECF6F5",
"l. c #EEF7F6",
"z. c #EFF7F6",
"x. c #EFF8F7",
"c. c #F1F9F8",
"v. c #F2F9F8",
"b. c #F4F9F9",
"n. c #F4FAF9",
"m. c #F5FAF9",
"M. c #F5FAFA",
"N. c #F5FBFA",
"B. c #F6FAFA",
"V. c #F6FBFB",
"C. c #F7FBFB",
"Z. c #F7FCFB",
"A. c #F8FCFB",
"S. c #F8FCFC",
"D. c #F9FCFC",
"F. c #FAFDFC",
"G. c #FAFDFD",
"H. c #FBFDFD",
"J. c #FCFDFD",
"K. c #FCFEFE",
"L. c #FDFEFE",
"P. c #FEFEFE",
"I. c #FEFFFE",
"U. c #FEFFFF",
"Y. c white",
/* pixels */
"                                                                ",
"                                                                ",
"                          p X.-.:.X.j                           ",
"                      < %.C.Y.Y.Y.Y.C.%.<                       ",
"                    ; :.Y.Y.Y.Y.Y.Y.Y.Y.%.2                     ",
"                    ) Y.Y.Y.Y.Y.Y.Y.Y.Y.d.U                     ",
"                  < t.Y.Y.Y.Y.Y.Y.Y.Y.Y.p.W q                   ",
"                  u v.Y.Y.Y.Y.Y.Y.Y.Y.Y.p.E t                   ",
"                  j C.Y.Y.Y.Y.Y.Y.Y.Y.D.7.K w                   ",
"                  t C.Y.Y.Y.Y.Y.Y.Y.Y.x.+.H q                   ",
"                  < e.Y.Y.Y.Y.Y.Y.Y.V.5.E n 0                   ",
"                    ) Y.Y.Y.Y.Y.V.j.&.` Z k                     ",
"                    - -.Y.C.x.t.>.[ E Z f 3                     ",
"                    j } &.&.} W K Z Z M [ b                     ",
"                  I C.D.9.( H M M S ( 8.D.v.I                   ",
"                p z.Y.Y.Y.A.d.8.9.d.Z.Y.Y.Y.e.M                 ",
"                3.Y.Y.Y.Y.Y.Y.Y.Y.Y.Y.Y.Y.D.p.W                 ",
"              j C.Y.Y.Y.Y.Y.Y.Y.Y.Y.Y.Y.Y.A.t.[ s               ",
"              } Y.Y.Y.Y.Y.Y.Y.Y.Y.Y.Y.Y.Y.Y.j.[ M               ",
"              :.Y.Y.Y.Y.Y.Y.Y.Y.Y.Y.Y.Y.Y.D.j.O.n               ",
"              -.Y.Y.Y.Y.Y.Y.Y.Y.Y.Y.Y.Y.Y.D.p. .M               ",
"              :.Y.Y.Y.Y.Y.Y.Y.Y.Y.Y.Y.Y.Y.V.q.W z               ",
"              } Y.Y.Y.Y.Y.Y.Y.Y.Y.Y.Y.Y.D.p.+.H z               ",
"              p C.Y.Y.Y.Y.Y.Y.Y.Y.Y.Y.Z.p.&.T M s               ",
"                4.Y.Y.Y.Y.Y.Y.Y.Y.D.v.q.+.E M n                 ",
"                y z.Y.Y.D.Y.D.V.v.t.;.[ K M z u                 ",
"              o X b a.j.j.a.p.q.1.[ T M n z u = o               ",
"            o o . + M O.} } [ ` K M n z z t : o o o             ",
"            o o o o % 6 z Z Z n n z z f 8 # o o o o             ",
"              o o o o o % > 8 u q 7 > % o o o o o               ",
"                    o o o o o % o o o o o o                     ",
"                                                                "
};
