/* XPM */
static char *_7b56bd3eec04788aeaa64901d726db3qS1CCSJnsOEV2ehM[] = {
/* columns rows colors chars-per-pixel */
"32 32 122 2 ",
"   c None",
".  c #341F0B",
"X  c #35210D",
"o  c #362412",
"O  c #3A2612",
"+  c #3E2813",
"@  c #412B16",
"#  c #4B2E12",
"$  c #442E19",
"%  c #4D3014",
"&  c #47321D",
"*  c #48321D",
"=  c #523416",
"-  c #563719",
";  c #573819",
":  c #5C3D1E",
">  c #643D17",
",  c #643E19",
"<  c #4B3621",
"1  c #5D3E20",
"2  c #513E2A",
"3  c #66401B",
"4  c #6D441B",
"5  c #70451C",
"6  c #73491F",
"7  c #53412E",
"8  c #4E4132",
"9  c #534333",
"0  c #594734",
"q  c #624325",
"w  c #6E4822",
"e  c #684A2B",
"r  c #734B23",
"t  c #77522B",
"y  c #7A542D",
"u  c #674D31",
"i  c #7B5732",
"p  c #7E5D39",
"a  c #7F613E",
"s  c #625545",
"d  c #695640",
"f  c #745F45",
"g  c #79664F",
"h  c #726858",
"j  c #787266",
"k  c #80613D",
"l  c #846746",
"z  c #856A4A",
"x  c #896D4C",
"c  c #856E52",
"v  c #8C7455",
"b  c #927A5D",
"n  c #877863",
"m  c #917E63",
"M  c #A79A83",
"N  c #A99C85",
"B  c #A99F8B",
"V  c #ADA18C",
"C  c #ACA492",
"Z  c #AFA897",
"A  c #B1A894",
"S  c #B5B09E",
"D  c #B9B19F",
"F  c #AFB4AD",
"G  c #B6B0A0",
"H  c #BAB4A4",
"J  c #BEBAAB",
"K  c #BABDB5",
"L  c #C2BFB1",
"P  c #BCC2B7",
"I  c #C6C3B4",
"U  c #CCCEC2",
"Y  c #CFD3CC",
"T  c #D0D1C6",
"R  c #C7D5D4",
"E  c #D9DFD7",
"W  c #D5DDD9",
"Q  c #DADFD8",
"!  c #DEE7E1",
"~  c #E3E7E1",
"^  c #E6EBE6",
"/  c #E0EBEA",
"(  c #E9EFEB",
")  c #E6F1ED",
"_  c #EBF1ED",
"`  c #EDF3F0",
"'  c #ECF2F0",
"]  c #EEF3F0",
"[  c #EEF3F1",
"{  c #EFF3F1",
"}  c #EDF5F2",
"|  c #ECFCFA",
" . c #F0F4F2",
".. c #F0F5F3",
"X. c #F1F6F4",
"o. c #F3F8F6",
"O. c #F2F9F8",
"+. c #F5FAF8",
"@. c #F5FAF9",
"#. c #F1FCFA",
"$. c #F6FCFA",
"%. c #F7FCFB",
"&. c #F0FEFC",
"*. c #F2FEFD",
"=. c #F5FDFC",
"-. c #F6FFFE",
";. c #F2FFFD",
":. c #F8FDFD",
">. c #F8FEFD",
",. c #F9FEFD",
"<. c #F9FEFE",
"1. c #FAFEFE",
"2. c #FBFEFE",
"3. c #FBFFFE",
"4. c #FAFFFF",
"5. c #FBFFFF",
"6. c #FDFFFE",
"7. c #FCFFFF",
"8. c #FDFFFF",
"9. c #FEFFFF",
"0. c white",
"q. c #FFFFFF",
/* pixels */
"                                                                ",
"                                                                ",
"                                                                ",
"                                                                ",
"        0.0.0.2.=.0.0.0.0.0.0.2.2.0.0.0.0.0.0.0.0.0.0.0.        ",
"        0.0.0.( V C J I I L S N G ^ ..o.0.0.0.0.o.) 0.0.        ",
"        0.0...V 5 > r r r w 3 4 r l v b D I =.0.U S 2.0.        ",
"        =.2.J t 5 > 4 5 5 4 3 4 5 5 > 3 5 y N J x v ` 0.        ",
"        2.0.Y 0 @ X @ < < O X & < * o O < < $ o + h _ 0.        ",
"        0.0.( g - # - : : = % : 1 : # = : 1 ; # = g ! 0.        ",
"        0.0...b 4 , 4 5 5 4 3 5 5 5 , 4 5 5 5 , 4 V ,.0.        ",
"        0.0...v 4 > 4 5 5 3 3 4 5 5 , 4 5 4 4 , 5 J 0.0.        ",
"        0.0.~ k 4 > 4 5 5 4 3 4 4 5 , 4 5 4 5 , 4 m ( 0.        ",
"        2.2.J r 4 > 4 4 4 4 3 4 5 5 , , 5 5 5 1 q l ^ 0.        ",
"        0.^ x 4 4 > 4 4 4 3 3 4 5 w , 4 5 4 q 8 7 j ` 0.        ",
"        0.( z 4 4 > 4 4 5 4 3 4 4 4 , 4 4 w 9 1 5 u R =.        ",
"        0.{ v 4 4 , 4 5 4 4 , 4 5 5 , 4 5 w 2 1 w n / *.        ",
"        0._ x 4 4 , 4 4 4 4 , 5 4 5 , , 5 5 q 2 9 F 0.0.        ",
"        0._ V t 4 , 4 4 5 4 , 5 5 w , 4 5 4 5 1 e L 0.0.        ",
"        0.0.=.M 4 , 4 4 4 4 , 5 5 4 , 4 5 5 5 , 4 N :.2.        ",
"        0.0.0.L w , 4 4 5 4 , 5 4 5 , 5 5 5 5 , 4 i L |         ",
"        2.0.+.M 5 , 4 5 5 3 , 5 5 5 , , 5 5 5 , 4 4 V 2.        ",
"        | | P u - # ; 7 : - # : 1 : # = : 1 ; # - q J 0.        ",
"        0.0.W s + X @ - * O . $ < * o O < < @ . @ 2 K 0.        ",
"        0.0._ b r , 4 5 5 k v v y 5 3 3 r 5 4 > 4 r H 0.        ",
"        0.2.) I L Z v i A ~ ` _ T b z B I N p c N J E 2.        ",
"        0.2.=.0.0.0.^ U =.0.0.0.0._ ( 2.0.+.E _ 0.0.0.0.        ",
"        0.0.0.0.0.0.0.*.0.0.0.0.0.0.0.0.0.0.0.0.0.0.0.0.        ",
"                                                                ",
"                                                                ",
"                                                                ",
"                                                                "
};
