/* XPM */
static char *result[] = {
/* columns rows colors chars-per-pixel */
"64 64 116 2 ",
"   c #040302",
".  c #0D0C0C",
"X  c #131313",
"o  c #171718",
"O  c #1B1D1F",
"+  c #3E260F",
"@  c #3E2610",
"#  c #1E2123",
"$  c #212326",
"%  c #252729",
"&  c #26292B",
"*  c #292A2C",
"=  c #41290F",
"-  c #402710",
";  c #432A10",
":  c #4A2E13",
">  c #4E3215",
",  c #533414",
"<  c #593716",
"1  c #5D3A17",
"2  c #51361B",
"3  c #55391E",
"4  c #5E3B18",
"5  c #633C15",
"6  c #633E19",
"7  c #563B21",
"8  c #533E29",
"9  c #65411D",
"0  c #6E451C",
"q  c #774617",
"w  c #71461C",
"e  c #74481D",
"r  c #794B1D",
"t  c #5B442E",
"y  c #5F482E",
"u  c #44423F",
"i  c #4B433A",
"p  c #534335",
"a  c #644424",
"s  c #694521",
"d  c #60442A",
"f  c #694928",
"g  c #734A22",
"h  c #77512B",
"j  c #78522B",
"k  c #67523A",
"l  c #7C5732",
"z  c #7D5A34",
"x  c #7E5C38",
"c  c #7F603E",
"v  c #434242",
"b  c #4F4E4B",
"n  c #7A6244",
"m  c #73634E",
"M  c #696053",
"N  c #666560",
"B  c #687273",
"V  c #82623E",
"C  c #836644",
"Z  c #856C4C",
"A  c #886D4C",
"S  c #867155",
"D  c #8D7354",
"F  c #85745B",
"G  c #927B5D",
"H  c #8D7D65",
"J  c #937E62",
"K  c #958165",
"L  c #9A8669",
"P  c #9A896E",
"I  c #958A73",
"U  c #9C8D73",
"Y  c #958F7C",
"T  c #9A937F",
"R  c #A09076",
"E  c #A1957D",
"W  c #77878A",
"Q  c #7D8A89",
"!  c #808581",
"~  c #8A8F88",
"^  c #9E9682",
"/  c #9F9884",
"(  c #9F9A88",
")  c #A29781",
"_  c #A59A83",
"`  c #A89C83",
"'  c #A79E88",
"]  c #ACA692",
"[  c #AEA894",
"{  c #A9A898",
"}  c #B4B4A3",
"|  c #BABCAC",
" . c #BEC2B4",
".. c #C0C5B7",
"X. c #C1C6B8",
"o. c #C2C9BC",
"O. c #BFD2CF",
"+. c #C7D1C5",
"@. c #C7D3C9",
"#. c #C9D4C9",
"$. c #CCD9CF",
"%. c #C3D8D6",
"&. c #CFDDD4",
"*. c #D2E2DA",
"=. c #D5EAE4",
"-. c #D8ECE6",
";. c #D9EEEA",
":. c #DBF2ED",
">. c #DFF6F2",
",. c #E1F7F4",
"<. c #E2FAF7",
"1. c #E6FBF8",
"2. c #EDFCFA",
"3. c #F3FDFC",
"4. c #FFFFFF",
"5. c None",
/* pixels */
"5.5.5.5.5.5.5.5.5.5.5.5.5.5.5.5.5.5.5.5.5.5.5.5.5.5.5.5.5.5.5.5.5.5.5.5.5.5.5.5.5.5.5.5.5.5.5.5.5.5.5.5.5.5.5.5.5.5.5.5.5.5.5.5.",
"5.5.5.5.5.5.5.5.5.5.5.5.5.5.5.5.5.5.5.5.5.5.5.5.5.5.5.5.5.5.5.5.5.5.5.5.5.5.5.5.5.5.5.5.5.5.5.5.5.5.5.5.5.5.5.5.5.5.5.5.5.5.5.5.",
"5.5.5.5.5.5.5.5.5.5.5.5.5.5.5.5.5.5.5.5.5.5.5.5.5.5.5.5.5.5.5.5.5.5.5.5.5.5.5.5.5.5.5.5.5.5.5.5.5.5.5.5.5.5.5.5.5.5.5.5.5.5.5.5.",
"5.5.5.5.5.5.5.5.5.5.5.5.5.5.5.5.5.5.5.5.5.5.5.5.5.5.5.5.5.5.5.5.5.5.5.5.5.5.5.5.5.5.5.5.5.5.5.5.5.5.5.5.5.5.5.5.5.5.5.5.5.5.5.5.",
"5.5.5.5.5.5.5.5.5.5.5.5.5.5.5.5.5.5.5.5.5.5.5.5.5.5.5.5.5.5.5.5.5.5.5.5.5.5.5.5.5.5.5.5.5.5.5.5.5.5.5.5.5.5.5.5.5.5.5.5.5.5.5.5.",
"5.5.5.5.5.5.5.5.5.5.5.5.5.5.5.5.5.5.5.5.5.5.5.5.5.5.5.5.5.5.5.5.5.5.5.5.5.5.5.5.5.5.5.5.5.5.5.5.5.5.5.5.5.5.5.5.5.5.5.5.5.5.5.5.",
"5.5.5.5.5.5.5.5.5.5.5.5.5.5.5.5.5.5.5.5.5.5.5.5.5.5.5.5.5.5.5.5.5.5.5.5.5.5.5.5.5.5.5.5.5.5.5.5.5.5.5.5.5.5.5.5.5.5.5.5.5.5.5.5.",
"5.5.5.5.5.5.5.5.5.5.5.5.5.5.5.5.5.5.5.5.5.5.5.5.5.5.5.5.5.5.5.5.5.5.5.5.5.5.5.5.5.5.5.5.5.5.5.5.5.5.5.5.5.5.5.5.5.5.5.5.5.5.5.5.",
"5.5.5.5.5.5.5.5.4.4.4.4.4.4.4.4.4.4.4.4.4.4.4.4.4.4.4.4.4.4.4.4.4.4.4.4.4.4.4.4.4.4.4.4.4.4.4.4.4.4.4.4.4.4.4.4.5.5.5.5.5.5.5.5.",
"5.5.5.5.5.5.5.5.4.4.4.4.4.4.4.3.3.3.4.4.4.4.4.4.4.4.4.4.4.4.4.3.3.4.4.4.4.4.4.4.4.4.4.4.4.4.4.4.4.3.4.4.4.4.4.4.5.5.5.5.5.5.5.5.",
"5.5.5.5.5.5.5.5.4.4.4.4.4.4.4.2.+.*.<.1.2.2.2.2.2.3.3.2.2.<.<.*.$.2.4.4.4.4.4.4.4.4.4.4.4.4.4.4.4.2.2.3.4.4.4.4.5.5.5.5.5.5.5.5.",
"5.5.5.5.5.5.5.5.4.4.4.4.4.4.4.,.l w a n G P ) _ _ ) _ I F C g 0 g [ >.2.2.2.2.2.4.4.4.4.4.4.4.4.4.2.o.2.4.4.4.4.5.5.5.5.5.5.5.5.",
"5.5.5.5.5.5.5.5.4.4.4.4.4.4.2.] 0 w 1 1 0 w 0 0 w w w 9 < 9 q 0 0 0 h K E T H | <.2.3.2.3.4.4.4.3.-.D 2.4.4.4.4.5.5.5.5.5.5.5.5.",
"5.5.5.5.5.5.5.5.4.4.4.4.3.2.} g w w 4 5 0 w 0 0 0 0 w 6 5 9 q 0 0 0 0 w 9 1 6 w V U _ } 2.4.4.4.2._ g *.3.4.4.4.5.5.5.5.5.5.5.5.",
"5.5.5.5.5.5.5.5.2.3.4.2.:.U 0 0 0 w 4 5 0 0 0 w 0 0 w 9 < 9 w 0 0 0 0 w 0 1 5 w 0 0 w w | 1.3.1.| w 0 K <.4.4.4.5.5.5.5.5.5.5.5.",
"5.5.5.5.5.5.5.5.<.4.4.4.,.V e e e r 9 5 e q e e e e r 0 9 w r w w e e r e 5 0 r e e w e e G E S r e w L 2.4.4.4.5.5.5.5.5.5.5.5.",
"5.5.5.5.5.5.5.5.3.4.4.4.3.} 9 9 6 6 : , 1 6 9 9 9 9 9 , > < 9 9 s 6 s 6 1 : , 6 9 9 9 9 6 6 , > 4 9 s / 2.4.4.4.5.5.5.5.5.5.5.5.",
"5.5.5.5.5.5.5.5.4.4.4.4.3.;.* * #         O * % & & .       X & % % % o       . $ * % % $         O * B 2.4.4.4.5.5.5.5.5.5.5.5.",
"5.5.5.5.5.5.5.5.4.4.4.4.4.1.m 7 7 > @ @ : 3 7 7 3 7 > = + = 2 7 7 7 7 2 ; - ; 2 7 7 7 7 3 : - + : 2 7 y ;.3.4.4.5.5.5.5.5.5.5.5.",
"5.5.5.5.5.5.5.5.4.4.4.4.4.2.P w w g 6 6 w w w w w w w 0 4 0 w w w 0 w w 0 6 6 e w w w w w w 6 4 e w w z &.2.4.4.5.5.5.5.5.5.5.5.",
"5.5.5.5.5.5.5.5.4.4.4.4.4.2.) w w w 4 5 0 w w 0 w w w 9 1 9 w 0 0 0 w w 0 1 5 e w w 0 w w w 5 1 e w g &.2.4.4.4.5.5.5.5.5.5.5.5.",
"5.5.5.5.5.5.5.5.4.4.4.4.4.3._ 0 0 w 4 1 0 0 0 0 0 0 w 9 < 0 w 0 0 w 0 w 0 1 6 w 0 0 0 0 0 w 6 1 w 0 K 2.4.4.4.4.5.5.5.5.5.5.5.5.",
"5.5.5.5.5.5.5.5.4.4.4.4.4.2.) 0 0 w 1 5 0 w w 0 0 0 q 5 < 0 w 0 0 w 0 w 9 1 6 w 0 0 0 0 w 0 6 < w 0 _ 2.4.4.4.4.5.5.5.5.5.5.5.5.",
"5.5.5.5.5.5.5.5.4.4.4.4.4.2.L w w w 1 1 0 w 0 0 0 0 w 9 1 9 0 0 0 0 0 w 0 4 6 w 0 0 w 0 w w 6 1 w 0 K 2.4.4.4.4.5.5.5.5.5.5.5.5.",
"5.5.5.5.5.5.5.5.4.4.4.4.4.2.Z 0 0 g 1 5 0 w 0 0 0 0 w 9 < 9 q 0 0 w 0 w 0 1 6 w 0 w 0 w 0 w 6 1 w 0 g &.3.4.4.4.5.5.5.5.5.5.5.5.",
"5.5.5.5.5.5.5.5.4.4.4.4.3.:.w 0 0 w 4 4 0 0 0 0 0 w w 9 5 9 q 0 0 0 0 w 9 6 6 w 0 0 0 0 w 0 5 < w 0 0 z &.2.4.4.5.5.5.5.5.5.5.5.",
"5.5.5.5.5.5.5.5.3.4.4.4.3.| 0 0 0 e 1 1 0 w 0 0 0 0 w 9 1 9 w 0 0 0 0 w 9 1 6 w w 0 0 w w w 5 1 q e w h :.3.4.4.5.5.5.5.5.5.5.5.",
"5.5.5.5.5.5.5.5.3.4.4.4.,.C w 0 w w 4 1 0 w 0 0 0 w e 5 1 9 w 0 0 w 0 w 0 1 6 w 0 0 0 0 0 w 6 8 t d 0 L 2.4.4.4.5.5.5.5.5.5.5.5.",
"5.5.5.5.5.5.5.5.4.4.3.2.E w w 0 0 w 1 5 0 0 0 w w 0 w 9 < 9 w 0 0 0 0 w 0 4 6 w 0 w 0 0 w a i u u u i _ 3.4.4.4.5.5.5.5.5.5.5.5.",
"5.5.5.5.5.5.5.5.4.4.3.*.0 0 0 0 w w 1 1 0 0 0 0 0 0 q 9 1 9 w 0 w 0 0 w 9 5 6 w 0 0 0 w 9 i u 8 a t i ! 2.4.4.4.5.5.5.5.5.5.5.5.",
"5.5.5.5.5.5.5.5.4.4.4.<.C 0 0 0 0 w 4 4 0 0 0 0 0 0 w 9 1 9 q 0 0 0 w w 9 1 6 w 0 w w 0 t v 7 5 q w a b ;.3.4.4.5.5.5.5.5.5.5.5.",
"5.5.5.5.5.5.5.5.4.4.4.2.P w 0 w 0 w 4 6 0 w 0 w w 0 w 9 1 9 q 0 0 0 0 w 0 1 6 w 0 0 w 0 i i 5 < w 0 w p W <.2.2.5.5.5.5.5.5.5.5.",
"5.5.5.5.5.5.5.5.4.4.4.3._ 0 0 0 0 q 4 4 0 w 0 0 0 0 q 9 1 9 w 0 w 0 0 w 9 4 6 w 0 0 w 0 8 v 5 4 w w w M =.2.2.<.5.5.5.5.5.5.5.5.",
"5.5.5.5.5.5.5.5.4.4.4.2._ 0 w 0 0 e 4 4 0 w 0 0 0 0 0 9 1 9 w 0 0 0 0 w 0 4 6 w w 0 w 0 p v 8 3 e w a @.3.4.4.2.5.5.5.5.5.5.5.5.",
"5.5.5.5.5.5.5.5.4.4.4.2.P 0 0 w 0 0 4 4 0 0 0 0 0 w w 9 1 9 w 0 0 0 0 w 9 4 6 w 0 0 0 0 s i v 8 a t N ,.4.4.4.4.5.5.5.5.5.5.5.5.",
"5.5.5.5.5.5.5.5.4.4.4.1.C w 0 0 0 e 1 4 0 w 0 q 0 0 q 5 < 0 w 0 w 0 w w 0 4 6 w 0 w 0 w e a i 8 v u ~ 2.4.4.4.4.5.5.5.5.5.5.5.5.",
"5.5.5.5.5.5.5.5.4.4.3.,.A 0 w 0 0 w 4 4 0 0 0 0 0 0 w 9 < 9 q w w 0 0 w 0 1 6 w w 0 0 0 0 w 4 3 t d _ 2.4.4.4.4.5.5.5.5.5.5.5.5.",
"5.5.5.5.5.5.5.5.4.4.3.2.1. .h 0 0 w 4 4 0 w 0 0 w 0 q 9 1 9 w 0 0 0 0 w 0 < 6 w 0 0 0 w 0 g 5 5 q q R 2.4.4.4.4.5.5.5.5.5.5.5.5.",
"5.5.5.5.5.5.5.5.3.4.4.4.4.2...w w w 4 4 0 0 0 0 0 0 w 9 < 9 w 0 0 0 0 w 9 4 6 w 0 0 0 0 w w 6 < w 0 C 1.4.4.4.4.5.5.5.5.5.5.5.5.",
"5.5.5.5.5.5.5.5.4.4.4.4.4.4.1.A 0 w 4 4 0 0 0 0 0 0 q 9 1 0 w 0 w 0 w w 0 4 6 w w 0 0 0 w 0 6 1 w 0 w @.3.4.4.3.5.5.5.5.5.5.5.5.",
"5.5.5.5.5.5.5.5.4.4.4.4.4.4.2.) w w 1 5 0 0 0 q 0 w w 9 1 0 w 0 0 0 w w 0 < 6 w 0 0 w 0 w w 6 1 w w 0 V =.2.2.2.5.5.5.5.5.5.5.5.",
"5.5.5.5.5.5.5.5.4.4.4.4.4.4.2.E 0 w 1 1 0 0 0 0 0 0 w 9 < 9 w 0 0 0 0 w 0 1 6 0 0 0 0 0 0 w 5 < w 0 0 0 h X.2.4.5.5.5.5.5.5.5.5.",
"5.5.5.5.5.5.5.5.4.4.4.4.4.4.1.A w w 4 1 0 0 0 0 0 0 w 6 < 0 q 0 w 0 0 w 0 4 6 w 0 0 0 w w w 6 < w 0 0 0 w *.3.4.5.5.5.5.5.5.5.5.",
"5.5.5.5.5.5.5.5.2.4.4.4.4.2...w 0 e 4 9 0 w 0 0 w w w 6 1 9 0 0 0 0 w w 0 4 6 e w w 0 w w w 6 1 w 0 w w V <.4.4.5.5.5.5.5.5.5.5.",
"5.5.5.5.5.5.5.5.>.1.2.2.1.X.j w w w 4 9 e 0 w w w w w 0 4 0 e w w w w g 0 4 6 e w w s e w e 6 6 e w w w L 2.4.4.5.5.5.5.5.5.5.5.",
"5.5.5.5.5.5.5.5.2.2.2.1.*.k 3 7 3 > + + : 3 7 7 7 7 > ; + = 2 7 7 7 7 2 ; @ ; : 7 7 7 7 3 : - @ : 3 7 7 Y 2.4.4.5.5.5.5.5.5.5.5.",
"5.5.5.5.5.5.5.5.4.4.4.4.3.%.* & #         O & % & & .       X & % % * o       . # & % & #         O * % Q 3.4.4.5.5.5.5.5.5.5.5.",
"5.5.5.5.5.5.5.5.4.4.4.4.4.1.H 9 9 9 > , 4 9 9 9 9 9 6 , > < 9 9 9 9 9 6 1 , , 6 s 6 9 9 6 6 , > 6 9 9 9 ^ 2.4.4.5.5.5.5.5.5.5.5.",
"5.5.5.5.5.5.5.5.4.4.4.4.4.2.` e e r 5 6 e r e e e e r 0 6 0 e e e e e r w 6 0 r e e e e e e 0 6 e e w e L 2.4.4.5.5.5.5.5.5.5.5.",
"5.5.5.5.5.5.5.5.4.4.4.4.4.2.K 0 w e 1 5 0 w 0 0 0 0 g Z I ) E D w 0 w w 0 4 6 e 0 0 0 0 w 0 5 1 w w 0 w V 1.4.4.5.5.5.5.5.5.5.5.",
"5.5.5.5.5.5.5.5.4.4.4.4.3.=.J E ) E F f 0 w 0 w g ' -.1.2.2.2.2.-.' g w 0 < 6 D E ) A w w 0 6 4 w z G U _ ,.3.4.5.5.5.5.5.5.5.5.",
"5.5.5.5.5.5.5.5.3.4.3.2.<.<.2.2.2.3.1.>.| C 0 j #.2.3.4.4.4.4.4.3.2.@.h V Y @.<.2.2.1.+.l w n { =.<.2.2.3.3.3.4.5.5.5.5.5.5.5.5.",
"5.5.5.5.5.5.5.5.4.4.4.3.3.4.4.4.4.4.4.4.3.>.G ..3.4.4.4.4.4.4.4.4.4.2.*.<.2.3.4.4.4.4.3.&. .1.2.3.4.4.4.4.4.4.4.5.5.5.5.5.5.5.5.",
"5.5.5.5.5.5.5.5.4.4.4.4.4.4.4.4.4.4.4.4.4.3.,.1.4.4.4.4.4.4.4.4.4.4.4.2.4.4.4.4.4.4.4.4.2.3.4.4.4.4.4.4.4.4.4.4.5.5.5.5.5.5.5.5.",
"5.5.5.5.5.5.5.5.4.4.4.4.4.4.4.4.4.4.4.4.4.4.2.2.4.4.4.4.4.4.4.4.4.4.4.4.4.4.4.4.4.4.4.4.4.4.4.4.4.4.4.4.4.4.4.4.5.5.5.5.5.5.5.5.",
"5.5.5.5.5.5.5.5.4.4.4.4.4.4.4.4.4.4.4.4.4.4.2.2.4.4.4.4.4.4.4.4.4.4.4.4.4.4.4.4.4.4.4.4.3.4.4.4.4.4.4.4.4.4.4.4.5.5.5.5.5.5.5.5.",
"5.5.5.5.5.5.5.5.5.5.5.5.5.5.5.5.5.5.5.5.5.5.5.5.5.5.5.5.5.5.5.5.5.5.5.5.5.5.5.5.5.5.5.5.5.5.5.5.5.5.5.5.5.5.5.5.5.5.5.5.5.5.5.5.",
"5.5.5.5.5.5.5.5.5.5.5.5.5.5.5.5.5.5.5.5.5.5.5.5.5.5.5.5.5.5.5.5.5.5.5.5.5.5.5.5.5.5.5.5.5.5.5.5.5.5.5.5.5.5.5.5.5.5.5.5.5.5.5.5.",
"5.5.5.5.5.5.5.5.5.5.5.5.5.5.5.5.5.5.5.5.5.5.5.5.5.5.5.5.5.5.5.5.5.5.5.5.5.5.5.5.5.5.5.5.5.5.5.5.5.5.5.5.5.5.5.5.5.5.5.5.5.5.5.5.",
"5.5.5.5.5.5.5.5.5.5.5.5.5.5.5.5.5.5.5.5.5.5.5.5.5.5.5.5.5.5.5.5.5.5.5.5.5.5.5.5.5.5.5.5.5.5.5.5.5.5.5.5.5.5.5.5.5.5.5.5.5.5.5.5.",
"5.5.5.5.5.5.5.5.5.5.5.5.5.5.5.5.5.5.5.5.5.5.5.5.5.5.5.5.5.5.5.5.5.5.5.5.5.5.5.5.5.5.5.5.5.5.5.5.5.5.5.5.5.5.5.5.5.5.5.5.5.5.5.5.",
"5.5.5.5.5.5.5.5.5.5.5.5.5.5.5.5.5.5.5.5.5.5.5.5.5.5.5.5.5.5.5.5.5.5.5.5.5.5.5.5.5.5.5.5.5.5.5.5.5.5.5.5.5.5.5.5.5.5.5.5.5.5.5.5.",
"5.5.5.5.5.5.5.5.5.5.5.5.5.5.5.5.5.5.5.5.5.5.5.5.5.5.5.5.5.5.5.5.5.5.5.5.5.5.5.5.5.5.5.5.5.5.5.5.5.5.5.5.5.5.5.5.5.5.5.5.5.5.5.5.",
"5.5.5.5.5.5.5.5.5.5.5.5.5.5.5.5.5.5.5.5.5.5.5.5.5.5.5.5.5.5.5.5.5.5.5.5.5.5.5.5.5.5.5.5.5.5.5.5.5.5.5.5.5.5.5.5.5.5.5.5.5.5.5.5."
};
